<svg id="svg" version="1.1" xmlns="http://www.w3.org/2000/svg" xmlns:xlink="http://www.w3.org/1999/xlink" width="400" height="184.5045045045045" viewBox="0, 0, 400,184.5045045045045"><g id="svgg"><path id="path0" d="M0.000 92.293 L 0.000 184.587 200.000 184.587 L 400.000 184.587 400.000 92.293 L 400.000 0.000 200.000 0.000 L 0.000 0.000 0.000 92.293 M188.611 18.126 C 188.750 18.265,188.832 18.957,188.832 19.983 C 188.832 21.247,188.885 21.585,189.063 21.471 C 189.703 21.061,190.551 20.897,191.111 21.074 C 192.851 21.624,192.986 21.939,192.986 25.473 L 192.986 28.150 192.247 28.150 L 191.509 28.150 191.417 25.640 C 191.298 22.424,190.824 21.799,189.406 22.993 L 188.843 23.466 188.792 25.808 L 188.740 28.150 188.002 28.150 L 187.263 28.150 187.214 23.281 C 187.179 19.843,187.227 18.337,187.375 18.158 C 187.635 17.846,188.313 17.828,188.611 18.126 M178.508 18.650 C 179.209 19.025,178.814 20.305,177.996 20.305 C 176.973 20.305,176.480 19.282,177.245 18.746 C 177.725 18.410,178.017 18.387,178.508 18.650 M162.212 20.628 L 162.265 22.520 164.104 22.520 L 165.944 22.520 165.947 20.812 C 165.950 18.804,166.042 18.595,166.886 18.676 L 167.513 18.736 167.562 23.499 L 167.611 28.263 166.824 28.206 L 166.036 28.150 165.984 26.073 L 165.932 23.996 164.098 23.996 L 162.264 23.996 162.212 26.073 L 162.160 28.150 161.421 28.150 L 160.683 28.150 160.633 23.631 C 160.576 18.417,160.545 18.602,161.466 18.678 L 162.160 18.736 162.212 20.628 M212.054 18.865 C 212.901 19.712,212.137 20.305,210.198 20.305 L 208.564 20.305 208.620 21.274 L 208.676 22.243 209.875 22.346 C 212.444 22.568,213.683 25.091,212.187 27.053 C 210.957 28.665,207.033 28.890,206.651 27.370 C 206.442 26.536,207.415 26.150,208.113 26.789 C 208.938 27.546,210.983 26.447,210.983 25.247 C 210.983 24.196,210.423 23.839,208.673 23.774 L 207.199 23.719 207.147 21.438 C 207.112 19.914,207.166 19.071,207.308 18.900 C 207.589 18.561,211.719 18.530,212.054 18.865 M220.238 18.966 C 220.385 19.144,220.594 19.497,220.703 19.751 C 221.151 20.793,221.376 21.339,221.504 21.689 C 221.579 21.892,221.745 22.307,221.874 22.612 C 222.002 22.916,222.189 23.373,222.289 23.627 C 222.389 23.881,222.544 24.233,222.633 24.409 C 222.723 24.585,222.796 24.855,222.796 25.009 C 222.796 25.163,222.921 25.288,223.073 25.288 C 223.226 25.288,223.350 25.204,223.350 25.102 C 223.350 24.999,223.525 24.522,223.738 24.040 C 223.951 23.559,224.192 23.000,224.273 22.796 C 224.354 22.593,224.546 22.137,224.701 21.781 C 224.855 21.426,225.125 20.761,225.301 20.305 C 225.815 18.973,226.236 18.617,227.221 18.681 L 228.057 18.736 228.107 23.500 L 228.156 28.264 227.460 28.207 L 226.765 28.150 226.715 24.965 C 226.687 23.214,226.598 21.781,226.516 21.781 C 226.435 21.781,225.967 22.799,225.476 24.042 C 223.825 28.224,223.814 28.242,222.998 28.242 C 222.366 28.242,222.263 28.176,222.062 27.642 C 221.567 26.327,221.325 25.714,220.951 24.827 C 220.619 24.043,220.469 23.656,220.107 22.652 C 219.564 21.147,219.474 21.466,219.474 24.908 L 219.474 28.242 218.736 28.242 L 217.997 28.242 217.997 23.664 C 217.997 20.350,218.058 19.025,218.219 18.865 C 218.564 18.520,219.925 18.588,220.238 18.966 M196.585 20.305 L 196.677 21.135 197.565 21.192 C 198.891 21.277,198.844 22.371,197.508 22.520 L 196.677 22.612 196.619 24.089 C 196.533 26.289,196.786 26.978,197.656 26.910 C 198.265 26.863,198.344 26.907,198.387 27.319 C 198.469 28.110,198.182 28.324,197.061 28.308 C 195.315 28.283,194.924 27.600,194.924 24.579 L 194.924 22.566 194.358 22.453 C 193.613 22.304,193.622 21.401,194.370 21.228 C 194.735 21.143,194.844 20.988,194.893 20.483 C 195.032 19.029,196.427 18.882,196.585 20.305 M173.298 21.165 C 174.503 21.462,175.046 22.177,175.258 23.745 C 175.440 25.091,175.117 25.288,172.732 25.288 C 170.968 25.288,170.928 25.298,170.928 25.717 C 170.928 26.666,173.122 27.450,173.822 26.751 C 174.210 26.362,175.075 26.627,175.137 27.153 C 175.270 28.306,172.054 28.815,170.512 27.885 C 168.774 26.836,168.652 22.797,170.326 21.667 C 170.910 21.272,172.193 20.875,172.560 20.976 C 172.696 21.014,173.028 21.099,173.298 21.165 M184.679 21.214 C 186.068 21.328,186.724 22.101,185.705 22.424 C 185.388 22.525,185.325 22.698,185.325 23.473 C 185.325 25.136,184.123 26.140,182.326 25.976 C 181.461 25.897,181.161 26.061,181.753 26.289 C 181.920 26.353,182.678 26.458,183.437 26.522 C 187.154 26.836,186.856 30.437,183.085 30.779 C 180.439 31.019,178.967 29.659,179.940 27.874 C 180.258 27.290,180.265 27.190,180.013 26.804 C 179.776 26.443,179.770 26.270,179.971 25.661 C 180.113 25.230,180.159 24.639,180.086 24.182 C 179.919 23.135,180.246 22.038,180.843 21.642 C 181.525 21.191,182.580 20.882,183.018 21.005 C 183.221 21.062,183.969 21.156,184.679 21.214 M178.269 21.160 L 178.688 21.273 178.638 24.711 L 178.588 28.150 177.961 28.209 C 177.067 28.295,177.025 28.139,177.022 24.702 C 177.018 21.133,177.117 20.852,178.269 21.160 M201.528 21.515 C 202.332 22.078,201.986 23.443,201.039 23.443 C 199.813 23.443,199.497 21.766,200.646 21.356 C 201.070 21.204,201.090 21.208,201.528 21.515 M182.168 22.586 C 181.291 23.021,181.613 24.550,182.582 24.550 C 183.287 24.550,183.664 24.202,183.664 23.551 C 183.664 22.655,182.953 22.196,182.168 22.586 M171.215 22.930 C 170.688 23.682,170.831 23.812,172.189 23.812 C 173.672 23.812,173.770 23.751,173.407 23.050 C 173.042 22.343,171.678 22.268,171.215 22.930 M201.743 26.475 C 201.863 26.621,201.936 27.057,201.904 27.444 C 201.802 28.688,199.908 28.505,199.908 27.252 C 199.908 26.398,201.219 25.844,201.743 26.475 M181.438 28.354 C 180.906 29.349,182.568 29.920,183.802 29.167 C 184.888 28.505,184.290 27.873,182.579 27.873 C 181.816 27.873,181.661 27.938,181.438 28.354 M81.957 38.016 C 81.957 39.164,82.017 39.485,82.249 39.574 C 82.630 39.721,323.830 39.721,324.212 39.574 C 324.443 39.485,324.504 39.166,324.504 38.036 C 324.504 37.252,324.554 36.559,324.616 36.497 C 324.817 36.296,331.519 39.751,331.514 40.053 C 331.509 40.294,325.608 43.337,324.773 43.528 C 324.577 43.573,324.507 43.239,324.465 42.052 L 324.412 40.517 203.184 40.471 L 81.957 40.424 81.957 41.993 C 81.957 43.010,81.885 43.563,81.754 43.563 C 81.253 43.563,74.951 40.313,74.947 40.053 C 74.942 39.762,81.554 36.331,81.818 36.488 C 81.894 36.533,81.957 37.221,81.957 38.016 M334.102 53.312 C 334.762 53.424,335.842 53.599,336.502 53.701 C 337.162 53.803,338.034 53.969,338.440 54.069 C 338.846 54.170,339.511 54.332,339.917 54.430 C 342.661 55.091,346.584 56.365,348.251 57.137 C 348.571 57.285,348.899 57.407,348.980 57.407 C 349.167 57.407,353.360 59.474,353.484 59.627 C 353.535 59.690,353.950 59.943,354.406 60.189 C 354.862 60.435,355.319 60.702,355.421 60.782 C 355.523 60.862,356.298 61.379,357.142 61.930 C 361.069 64.496,365.528 68.390,368.766 72.081 C 369.856 73.324,369.849 73.315,370.474 74.197 C 370.724 74.549,371.114 75.046,371.343 75.303 C 371.571 75.559,371.758 75.819,371.758 75.881 C 371.758 75.942,371.959 76.226,372.203 76.511 C 372.448 76.796,372.757 77.245,372.890 77.508 C 373.023 77.772,373.362 78.335,373.645 78.760 C 373.927 79.184,374.158 79.613,374.158 79.713 C 374.158 79.813,374.220 79.923,374.296 79.957 C 374.715 80.143,377.712 86.172,378.477 88.368 C 379.962 92.629,380.249 93.557,380.249 94.095 C 380.249 94.311,380.332 94.538,380.434 94.601 C 380.535 94.664,380.618 94.996,380.618 95.339 C 380.618 95.683,380.693 96.009,380.783 96.065 C 380.874 96.122,380.991 96.480,381.043 96.861 C 381.095 97.242,381.269 98.468,381.430 99.585 C 382.322 105.787,382.302 110.490,381.354 117.028 C 381.244 117.790,381.108 118.766,381.052 119.197 C 380.996 119.629,380.876 119.982,380.784 119.982 C 380.693 119.982,380.618 120.267,380.618 120.617 C 380.618 120.966,380.535 121.303,380.434 121.366 C 380.332 121.429,380.249 121.656,380.249 121.871 C 380.249 122.087,380.166 122.539,380.065 122.876 C 379.963 123.213,379.791 123.800,379.683 124.181 C 379.484 124.882,379.232 125.533,378.936 126.117 C 378.846 126.293,378.772 126.599,378.772 126.798 C 378.772 126.996,378.689 127.210,378.588 127.273 C 378.486 127.335,378.403 127.546,378.403 127.739 C 378.403 127.933,378.237 128.388,378.034 128.749 C 377.831 129.111,377.665 129.516,377.665 129.650 C 377.665 129.984,375.712 133.876,375.059 134.844 C 374.766 135.278,374.527 135.679,374.527 135.735 C 374.527 135.791,374.278 136.207,373.973 136.658 C 373.669 137.109,373.419 137.560,373.419 137.660 C 373.419 137.760,373.286 137.952,373.123 138.087 C 372.961 138.222,372.753 138.502,372.661 138.710 C 372.570 138.917,372.205 139.460,371.851 139.917 C 371.497 140.374,371.062 140.955,370.885 141.209 C 368.623 144.441,363.642 149.396,359.945 152.093 C 359.386 152.501,358.688 153.022,358.394 153.251 C 358.099 153.481,357.498 153.876,357.058 154.130 C 356.617 154.384,355.654 154.962,354.916 155.415 C 353.293 156.412,347.971 159.114,347.631 159.114 C 347.497 159.114,347.243 159.189,347.067 159.282 C 346.891 159.374,346.331 159.577,345.824 159.733 C 345.316 159.888,344.444 160.181,343.886 160.383 C 343.327 160.585,342.164 160.926,341.301 161.142 C 340.438 161.357,339.442 161.611,339.086 161.706 C 336.726 162.339,333.164 162.838,330.318 162.936 C 329.100 162.978,328.024 163.090,327.928 163.186 C 327.694 163.418,74.204 163.422,74.204 163.190 C 74.204 163.094,71.996 162.979,69.082 162.924 C 66.264 162.871,63.419 162.747,62.760 162.649 C 60.644 162.334,59.181 162.080,58.376 161.887 C 54.496 160.955,53.217 160.608,52.227 160.216 C 51.675 159.998,50.849 159.693,50.392 159.539 C 48.544 158.916,43.918 156.747,42.705 155.935 C 42.284 155.653,41.884 155.422,41.815 155.422 C 41.747 155.422,41.329 155.173,40.886 154.868 C 40.443 154.564,40.005 154.315,39.912 154.315 C 39.819 154.315,39.593 154.149,39.409 153.946 C 39.226 153.743,39.003 153.576,38.915 153.576 C 37.643 153.576,28.880 145.363,26.119 141.582 C 25.510 140.748,24.795 139.804,24.530 139.484 C 24.264 139.164,23.899 138.611,23.716 138.256 C 23.534 137.900,23.245 137.402,23.074 137.148 C 22.599 136.443,21.565 134.712,21.311 134.195 C 19.356 130.221,18.643 128.680,18.643 128.429 C 18.643 128.262,18.560 128.074,18.459 128.011 C 18.357 127.948,18.274 127.735,18.274 127.536 C 18.274 127.338,18.201 127.031,18.111 126.855 C 17.359 125.381,16.214 121.312,15.528 117.674 C 14.443 111.921,14.485 103.219,15.623 97.647 C 16.103 95.292,17.136 91.420,17.604 90.213 C 17.850 89.581,18.198 88.648,18.377 88.140 C 18.557 87.633,18.774 87.138,18.858 87.042 C 18.943 86.946,19.012 86.731,19.012 86.565 C 19.012 86.256,21.617 80.995,22.023 80.485 C 22.146 80.330,22.405 79.912,22.597 79.557 C 25.156 74.841,31.455 67.776,36.175 64.329 C 37.009 63.719,37.954 63.004,38.274 62.739 C 38.594 62.474,39.146 62.108,39.502 61.926 C 39.857 61.744,40.355 61.455,40.609 61.284 C 41.070 60.973,42.587 60.057,43.286 59.667 C 44.755 58.848,49.268 56.791,50.457 56.398 C 51.255 56.135,52.127 55.808,52.395 55.672 C 53.196 55.265,59.744 53.747,61.886 53.471 C 62.980 53.331,63.928 53.162,63.994 53.096 C 64.217 52.872,332.784 53.087,334.102 53.312 M65.713 54.371 C 63.224 54.588,61.636 54.800,59.345 55.222 C 58.837 55.315,58.151 55.439,57.820 55.496 C 57.489 55.554,57.173 55.675,57.117 55.766 C 57.061 55.856,56.735 55.930,56.391 55.930 C 56.048 55.930,55.716 56.013,55.653 56.114 C 55.590 56.216,55.258 56.299,54.915 56.299 C 54.571 56.299,54.239 56.382,54.176 56.484 C 54.114 56.585,53.864 56.668,53.623 56.668 C 53.381 56.668,53.132 56.751,53.069 56.853 C 53.006 56.954,52.757 57.037,52.515 57.037 C 52.273 57.037,52.031 57.109,51.977 57.197 C 51.923 57.284,51.500 57.462,51.038 57.591 C 50.576 57.721,50.154 57.898,50.100 57.986 C 50.046 58.073,49.837 58.145,49.637 58.145 C 49.436 58.145,49.088 58.263,48.863 58.408 C 48.638 58.553,47.505 59.105,46.345 59.635 C 45.185 60.166,43.967 60.774,43.637 60.987 C 43.308 61.201,42.610 61.624,42.087 61.929 C 40.678 62.748,38.869 63.896,38.763 64.038 C 38.713 64.106,38.380 64.361,38.025 64.605 C 37.670 64.849,37.337 65.099,37.287 65.159 C 37.236 65.220,36.904 65.471,36.548 65.717 C 34.797 66.929,29.189 72.545,27.520 74.758 C 26.869 75.621,26.267 76.354,26.182 76.388 C 26.096 76.422,26.027 76.524,26.027 76.615 C 26.027 76.706,25.695 77.218,25.289 77.754 C 24.884 78.289,24.551 78.820,24.551 78.934 C 24.550 79.049,24.424 79.247,24.270 79.375 C 24.116 79.503,23.853 79.908,23.686 80.275 C 23.518 80.641,23.249 81.108,23.086 81.311 C 22.758 81.720,20.333 86.745,19.834 88.048 C 19.659 88.505,19.397 89.153,19.251 89.488 C 19.105 89.823,18.939 90.386,18.882 90.738 C 18.825 91.091,18.706 91.424,18.618 91.478 C 18.531 91.533,18.459 91.775,18.459 92.017 C 18.459 92.258,18.376 92.508,18.274 92.570 C 18.173 92.633,18.090 92.965,18.090 93.309 C 18.090 93.652,18.006 93.984,17.905 94.047 C 17.803 94.110,17.720 94.442,17.720 94.785 C 17.720 95.129,17.647 95.455,17.557 95.511 C 17.467 95.566,17.339 95.883,17.273 96.214 C 17.207 96.545,17.068 97.231,16.965 97.739 C 16.235 101.321,15.687 109.387,16.103 110.429 C 16.225 110.735,17.754 110.752,44.572 110.752 L 72.912 110.752 72.912 111.213 L 72.912 111.674 44.624 111.721 L 16.336 111.767 16.280 112.631 C 16.231 113.398,16.526 115.724,17.014 118.413 C 17.107 118.920,17.229 119.606,17.287 119.937 C 17.345 120.268,17.466 120.584,17.556 120.640 C 17.646 120.696,17.720 121.023,17.720 121.366 C 17.720 121.709,17.803 122.042,17.905 122.104 C 18.006 122.167,18.090 122.499,18.090 122.843 C 18.090 123.186,18.173 123.518,18.274 123.581 C 18.376 123.644,18.459 123.893,18.459 124.135 C 18.459 124.377,18.542 124.626,18.643 124.689 C 18.745 124.751,18.828 125.000,18.828 125.242 C 18.828 125.484,18.911 125.733,19.012 125.796 C 19.114 125.859,19.197 126.051,19.197 126.222 C 19.196 126.394,19.356 126.867,19.552 127.273 C 19.747 127.679,20.470 129.257,21.159 130.780 C 21.847 132.303,22.580 133.812,22.788 134.134 C 22.996 134.455,23.415 135.147,23.719 135.671 C 24.539 137.079,25.687 138.888,25.828 138.994 C 25.897 139.045,26.152 139.377,26.396 139.732 C 26.640 140.088,26.889 140.420,26.950 140.471 C 27.010 140.521,27.261 140.854,27.507 141.209 C 29.634 144.281,38.067 151.935,40.794 153.268 C 40.946 153.343,41.527 153.689,42.086 154.039 C 42.644 154.388,44.389 155.306,45.962 156.079 C 47.536 156.852,48.967 157.560,49.144 157.653 C 49.320 157.746,49.553 157.822,49.660 157.822 C 49.768 157.822,50.200 157.988,50.620 158.191 C 51.041 158.394,51.530 158.560,51.708 158.560 C 51.886 158.560,52.083 158.643,52.146 158.745 C 52.209 158.846,52.458 158.929,52.700 158.929 C 52.941 158.929,53.191 159.012,53.253 159.114 C 53.316 159.216,53.565 159.299,53.807 159.299 C 54.049 159.299,54.298 159.382,54.361 159.483 C 54.424 159.585,54.756 159.668,55.099 159.668 C 55.443 159.668,55.775 159.751,55.838 159.852 C 55.900 159.954,56.233 160.037,56.576 160.037 C 56.919 160.037,57.245 160.109,57.299 160.197 C 57.353 160.284,57.711 160.416,58.094 160.490 C 58.477 160.563,59.165 160.701,59.622 160.796 C 62.921 161.484,72.406 162.022,73.543 161.586 C 74.058 161.388,73.981 111.310,73.466 111.175 C 73.098 111.079,73.096 110.923,73.096 82.700 L 73.096 54.321 71.962 54.203 C 70.471 54.047,68.965 54.087,65.713 54.371 M75.127 107.983 L 75.127 161.698 203.138 161.698 L 331.149 161.698 331.149 107.983 L 331.149 54.269 203.138 54.269 L 75.127 54.269 75.127 107.983 M332.395 54.559 C 332.195 54.762,332.221 161.285,332.421 161.409 C 332.572 161.502,334.734 161.209,337.240 160.756 C 337.799 160.655,338.526 160.526,338.857 160.469 C 339.188 160.412,339.505 160.291,339.560 160.201 C 339.616 160.111,339.943 160.037,340.286 160.037 C 340.629 160.037,340.962 159.954,341.024 159.852 C 341.087 159.751,341.419 159.668,341.763 159.668 C 342.106 159.668,342.438 159.585,342.501 159.483 C 342.564 159.382,342.813 159.299,343.055 159.299 C 343.297 159.299,343.546 159.216,343.609 159.114 C 343.671 159.012,343.921 158.929,344.162 158.929 C 344.404 158.929,344.646 158.858,344.701 158.770 C 344.755 158.683,345.177 158.505,345.639 158.376 C 346.101 158.246,346.524 158.069,346.578 157.981 C 346.632 157.894,346.826 157.822,347.009 157.822 C 347.191 157.822,347.830 157.581,348.428 157.287 C 349.026 156.993,350.174 156.439,350.979 156.055 C 354.999 154.139,360.596 150.213,363.918 146.979 C 366.586 144.381,369.728 140.882,369.728 140.508 C 369.728 140.411,369.864 140.219,370.030 140.081 C 370.196 139.943,370.549 139.506,370.814 139.110 C 372.219 137.013,372.695 136.258,372.981 135.671 C 373.155 135.316,373.410 134.892,373.547 134.729 C 373.949 134.254,376.317 129.540,376.750 128.355 C 378.250 124.249,378.997 121.782,379.704 118.597 C 381.085 112.368,381.089 104.218,379.712 97.462 C 379.619 97.005,379.483 96.318,379.410 95.935 C 379.336 95.551,379.205 95.194,379.117 95.139 C 379.029 95.085,378.957 94.864,378.957 94.649 C 378.957 94.434,378.881 94.003,378.787 93.691 C 378.135 91.513,377.373 89.147,377.149 88.602 C 376.091 86.026,374.410 82.420,373.966 81.772 C 373.792 81.518,373.098 80.417,372.425 79.325 C 370.802 76.696,368.570 73.775,366.538 71.620 C 364.183 69.122,360.021 65.344,359.625 65.344 C 359.534 65.344,359.221 65.095,358.929 64.790 C 358.638 64.485,358.333 64.236,358.253 64.236 C 358.172 64.236,357.668 63.904,357.133 63.499 C 356.598 63.093,356.067 62.761,355.952 62.760 C 355.838 62.760,355.640 62.633,355.512 62.479 C 355.384 62.325,354.979 62.060,354.612 61.889 C 354.246 61.718,353.901 61.515,353.846 61.437 C 353.651 61.159,348.340 58.563,347.094 58.138 C 346.395 57.900,345.745 57.637,345.648 57.556 C 345.552 57.474,345.287 57.407,345.059 57.407 C 344.832 57.407,344.594 57.323,344.532 57.222 C 344.469 57.120,344.220 57.037,343.978 57.037 C 343.736 57.037,343.487 56.954,343.424 56.853 C 343.361 56.751,343.112 56.668,342.870 56.668 C 342.629 56.668,342.379 56.585,342.317 56.484 C 342.254 56.382,341.922 56.299,341.578 56.299 C 341.235 56.299,340.903 56.216,340.840 56.114 C 340.777 56.013,340.486 55.930,340.194 55.930 C 339.901 55.930,339.616 55.856,339.560 55.766 C 339.505 55.675,339.188 55.554,338.857 55.496 C 338.526 55.439,337.799 55.301,337.240 55.190 C 336.682 55.079,335.727 54.917,335.118 54.830 C 334.509 54.743,333.678 54.615,333.272 54.546 C 332.866 54.476,332.471 54.482,332.395 54.559 M38.203 90.796 C 39.074 91.039,39.457 92.039,38.998 92.876 C 38.613 93.579,38.613 93.587,38.965 94.316 C 39.509 95.442,39.505 95.893,38.949 95.893 C 38.593 95.893,38.412 95.727,38.146 95.155 C 37.379 93.508,36.955 93.399,36.880 94.832 C 36.829 95.826,36.796 95.893,36.364 95.893 L 35.902 95.893 35.850 93.415 C 35.812 91.557,35.858 90.900,36.035 90.788 C 36.314 90.611,37.556 90.615,38.203 90.796 M52.357 90.911 C 52.534 91.372,52.061 91.740,51.293 91.740 C 50.652 91.740,50.577 91.788,50.577 92.201 C 50.577 92.593,50.662 92.663,51.145 92.663 C 52.582 92.663,53.240 94.458,52.206 95.558 C 51.584 96.220,49.377 96.135,49.377 95.449 C 49.377 95.036,49.448 95.004,50.392 94.988 C 51.894 94.962,52.043 93.597,50.546 93.588 C 49.561 93.583,49.469 93.456,49.469 92.105 C 49.469 90.660,49.461 90.667,51.090 90.647 C 51.965 90.636,52.276 90.701,52.357 90.911 M54.915 90.773 C 55.094 90.905,55.258 91.225,55.742 92.386 C 55.869 92.690,56.046 93.084,56.136 93.260 C 56.226 93.436,56.299 93.704,56.299 93.854 C 56.299 94.022,56.407 94.087,56.576 94.022 C 56.728 93.963,56.853 93.798,56.853 93.656 C 56.853 93.513,56.930 93.252,57.025 93.075 C 57.120 92.899,57.384 92.320,57.611 91.788 C 58.034 90.798,58.417 90.518,59.068 90.725 C 59.414 90.834,59.437 91.004,59.437 93.426 L 59.437 96.010 58.929 95.951 C 58.430 95.894,58.420 95.869,58.318 94.324 C 58.261 93.461,58.198 92.860,58.179 92.988 C 58.160 93.116,57.987 93.573,57.795 94.003 C 57.602 94.433,57.332 95.059,57.195 95.392 C 56.998 95.872,56.852 95.988,56.502 95.946 C 56.056 95.892,55.974 95.792,55.561 94.785 C 55.435 94.481,55.260 94.087,55.170 93.911 C 55.080 93.735,55.007 93.448,55.007 93.274 C 55.007 92.326,54.648 93.498,54.601 94.601 C 54.548 95.841,54.527 95.893,54.084 95.893 L 53.623 95.893 53.571 93.495 C 53.513 90.825,53.904 90.032,54.915 90.773 M36.917 92.201 C 36.917 92.857,37.102 92.977,37.733 92.735 C 38.138 92.580,38.099 91.977,37.668 91.746 C 37.075 91.429,36.917 91.524,36.917 92.201 M44.766 92.550 C 45.455 93.054,44.814 93.401,43.193 93.401 C 42.103 93.401,41.703 93.330,41.515 93.104 C 41.108 92.613,41.770 92.293,43.193 92.293 C 43.946 92.293,44.550 92.392,44.766 92.550 M44.947 94.416 C 44.947 94.908,41.934 95.085,41.544 94.616 C 41.106 94.087,41.511 93.940,43.255 93.994 C 44.806 94.043,44.947 94.078,44.947 94.416 M48.451 95.059 C 48.856 95.506,48.538 96.037,47.918 95.948 C 47.469 95.884,47.312 95.345,47.631 94.961 C 47.925 94.607,48.056 94.622,48.451 95.059 " stroke="none" fill="#fbf8e9" fill-rule="evenodd"></path><path id="path1" d="M187.577 18.311 C 187.416 18.472,187.356 19.837,187.356 23.295 L 187.356 28.057 187.890 28.057 C 188.591 28.057,188.648 27.862,188.648 25.440 L 188.648 23.406 189.221 22.871 C 190.727 21.464,191.478 22.307,191.601 25.538 L 191.694 27.965 192.293 28.023 L 192.893 28.081 192.891 25.900 C 192.889 23.036,192.775 22.429,192.115 21.769 C 191.494 21.149,190.117 21.008,189.468 21.499 C 188.761 22.033,188.648 21.867,188.648 20.292 C 188.648 18.356,188.256 17.632,187.577 18.311 M177.317 18.925 C 176.920 19.323,177.203 20.012,177.793 20.083 C 178.441 20.162,178.795 19.687,178.527 19.099 C 178.291 18.582,177.740 18.503,177.317 18.925 M160.898 18.951 C 160.831 19.019,160.775 21.095,160.775 23.566 L 160.775 28.057 161.421 28.057 L 162.067 28.057 162.067 26.226 C 162.067 23.670,161.941 23.812,164.210 23.812 L 166.128 23.812 166.128 25.934 L 166.128 28.057 166.778 28.057 L 167.427 28.057 167.377 23.489 L 167.328 18.920 166.774 18.920 L 166.221 18.920 166.168 20.818 L 166.115 22.717 164.137 22.664 L 162.160 22.612 162.107 20.720 L 162.054 18.828 161.538 18.828 C 161.254 18.828,160.966 18.883,160.898 18.951 M207.522 18.950 C 207.356 19.017,207.291 19.653,207.291 21.228 C 207.291 23.604,207.311 23.645,208.352 23.486 C 209.893 23.250,211.168 24.073,211.168 25.303 C 211.168 26.725,209.709 27.447,207.962 26.888 C 207.075 26.604,206.753 26.672,206.740 27.145 C 206.693 28.882,211.377 28.344,212.264 26.510 C 213.308 24.354,212.177 22.728,209.406 22.403 L 208.382 22.282 208.436 21.247 L 208.491 20.212 210.089 20.159 C 211.802 20.102,212.219 19.894,212.001 19.206 C 211.884 18.837,208.308 18.633,207.522 18.950 M218.284 19.121 C 218.030 19.376,217.997 19.985,218.040 23.690 L 218.090 27.965 218.736 27.965 L 219.382 27.965 219.432 24.504 C 219.462 22.406,219.553 21.043,219.663 21.043 C 219.762 21.043,219.843 21.169,219.843 21.322 C 219.843 21.476,219.920 21.746,220.014 21.922 C 220.108 22.098,220.698 23.551,221.326 25.150 L 222.467 28.057 223.056 28.057 C 223.570 28.057,223.677 27.969,223.892 27.365 C 224.027 26.984,224.302 26.299,224.501 25.842 C 224.701 25.385,224.939 24.825,225.030 24.596 C 225.121 24.368,225.279 23.994,225.381 23.766 C 225.482 23.537,225.765 22.852,226.010 22.243 C 226.677 20.581,226.761 20.826,226.815 24.596 L 226.866 28.057 227.508 28.057 L 228.150 28.057 228.150 23.664 C 228.150 18.928,228.129 18.828,227.178 18.828 C 226.420 18.828,226.020 19.096,225.743 19.790 C 225.609 20.124,225.280 20.895,225.011 21.504 C 224.743 22.114,224.244 23.297,223.903 24.135 C 223.080 26.155,223.070 26.147,221.624 22.463 C 220.862 20.521,220.232 19.183,220.017 19.049 C 219.518 18.737,218.631 18.775,218.284 19.121 M195.291 19.982 C 195.286 20.740,195.071 21.228,194.740 21.228 C 194.306 21.228,193.967 21.662,194.110 22.035 C 194.173 22.200,194.414 22.335,194.645 22.335 C 195.202 22.335,195.287 22.714,195.291 25.210 C 195.293 27.130,195.320 27.280,195.738 27.672 C 196.222 28.127,197.722 28.286,198.087 27.922 C 198.488 27.520,198.180 27.038,197.560 27.098 C 196.602 27.191,196.377 26.636,196.440 24.342 L 196.493 22.427 197.323 22.335 C 198.610 22.192,198.574 21.347,197.277 21.264 L 196.401 21.207 196.401 20.387 C 196.401 19.598,196.379 19.566,195.847 19.566 C 195.396 19.566,195.293 19.644,195.291 19.982 M170.734 21.643 C 168.916 22.869,168.820 26.450,170.572 27.698 C 171.227 28.164,173.662 28.286,174.401 27.890 C 175.050 27.543,174.962 26.681,174.296 26.855 C 172.165 27.411,170.655 26.867,170.779 25.587 L 170.835 25.012 172.958 24.919 L 175.081 24.827 175.131 24.089 C 175.283 21.871,172.605 20.382,170.734 21.643 M177.290 21.453 C 177.237 21.590,177.217 23.112,177.245 24.834 L 177.296 27.965 177.900 28.023 L 178.504 28.081 178.454 24.701 L 178.403 21.320 177.895 21.261 C 177.592 21.226,177.347 21.304,177.290 21.453 M181.000 21.795 C 180.234 22.468,179.993 23.380,180.334 24.322 C 180.501 24.783,180.508 25.011,180.360 25.159 C 180.103 25.416,180.093 26.889,180.348 27.046 C 180.468 27.120,180.401 27.386,180.163 27.771 C 179.185 29.353,180.253 30.641,182.541 30.641 C 184.157 30.641,185.037 30.234,185.503 29.272 C 186.246 27.737,185.511 26.911,183.203 26.685 C 181.482 26.516,181.264 26.438,181.264 25.991 C 181.264 25.649,181.341 25.623,182.014 25.730 C 183.891 26.030,185.237 24.979,185.100 23.321 C 185.028 22.452,185.059 22.347,185.401 22.298 C 185.848 22.233,186.028 21.620,185.667 21.391 C 184.934 20.927,181.666 21.210,181.000 21.795 M200.409 21.711 C 200.158 21.961,200.268 23.082,200.554 23.191 C 201.256 23.461,201.778 23.094,201.718 22.375 C 201.662 21.698,200.839 21.281,200.409 21.711 M183.617 22.557 C 183.949 22.833,183.903 24.000,183.543 24.397 C 183.104 24.882,182.099 24.842,181.736 24.324 C 180.826 23.024,182.399 21.546,183.617 22.557 M173.387 22.668 C 174.202 23.569,173.915 23.900,172.266 23.958 C 170.798 24.009,170.743 23.996,170.743 23.600 C 170.743 22.519,172.645 21.848,173.387 22.668 M200.389 26.688 C 200.039 27.599,200.249 28.082,200.969 28.022 C 201.574 27.972,201.669 27.900,201.721 27.446 C 201.823 26.557,200.687 25.911,200.389 26.688 M184.177 27.975 C 185.105 28.625,184.257 29.534,182.722 29.534 C 181.233 29.534,180.733 29.004,181.367 28.098 C 181.726 27.586,183.509 27.508,184.177 27.975 M73.835 53.346 C 73.835 53.447,73.929 53.530,74.045 53.530 C 74.261 53.530,74.115 160.829,73.899 161.573 C 73.622 162.526,61.909 161.690,56.658 160.343 C 53.573 159.551,51.806 158.973,49.718 158.073 C 49.398 157.935,49.071 157.822,48.991 157.822 C 48.746 157.822,42.832 154.845,42.721 154.666 C 42.664 154.574,42.253 154.333,41.809 154.130 C 41.364 153.928,40.946 153.674,40.879 153.565 C 40.813 153.457,40.579 153.300,40.360 153.216 C 39.838 153.014,36.585 150.624,34.756 149.099 C 32.686 147.373,28.724 143.232,27.319 141.326 C 26.659 140.432,25.906 139.437,25.645 139.116 C 25.111 138.459,21.966 133.312,21.966 133.095 C 21.966 133.018,21.717 132.444,21.412 131.821 C 21.108 131.198,20.609 130.178,20.305 129.554 C 20.000 128.931,19.751 128.310,19.751 128.175 C 19.751 128.040,19.585 127.634,19.382 127.273 C 19.179 126.911,19.012 126.468,19.012 126.289 C 19.012 126.109,18.944 125.883,18.861 125.787 C 18.712 125.613,18.109 123.719,17.748 122.289 C 17.645 121.883,17.430 121.094,17.270 120.535 C 16.883 119.185,16.479 116.873,16.160 114.173 C 15.975 112.613,15.814 111.903,15.610 111.754 C 15.239 111.482,15.236 110.824,15.606 110.682 C 15.842 110.592,15.870 110.345,15.770 109.232 C 15.348 104.516,17.713 90.781,19.209 89.257 C 19.304 89.161,19.382 88.896,19.382 88.668 C 19.382 88.441,19.455 88.209,19.546 88.153 C 19.636 88.097,19.765 87.822,19.833 87.542 C 19.979 86.943,22.660 81.556,23.505 80.166 C 23.826 79.638,24.326 78.818,24.617 78.344 C 27.179 74.167,32.904 68.083,37.286 64.882 C 37.703 64.578,38.310 64.113,38.635 63.850 C 38.959 63.587,39.830 63.006,40.570 62.558 C 41.311 62.111,42.432 61.432,43.062 61.050 C 43.693 60.669,44.333 60.308,44.485 60.248 C 44.869 60.099,46.941 59.132,48.249 58.492 C 48.847 58.200,49.470 57.958,49.634 57.954 C 49.797 57.951,50.078 57.837,50.258 57.700 C 50.565 57.468,54.127 56.277,55.561 55.928 C 55.916 55.842,56.675 55.636,57.247 55.471 C 60.053 54.661,65.105 54.087,69.451 54.085 C 71.757 54.085,73.096 54.016,73.096 53.899 C 73.096 53.782,71.509 53.715,68.703 53.715 C 65.698 53.715,64.245 53.649,64.103 53.507 C 63.950 53.355,63.587 53.354,62.728 53.503 C 62.085 53.615,61.020 53.798,60.360 53.909 C 59.700 54.021,58.329 54.320,57.314 54.574 C 56.299 54.828,55.178 55.103,54.822 55.187 C 53.661 55.459,52.150 55.960,51.970 56.131 C 51.874 56.224,51.609 56.299,51.381 56.299 C 51.154 56.299,50.916 56.382,50.854 56.484 C 50.791 56.585,50.542 56.668,50.300 56.668 C 50.058 56.668,49.809 56.751,49.746 56.853 C 49.683 56.954,49.498 57.037,49.335 57.037 C 48.948 57.037,43.214 59.934,41.694 60.897 C 41.047 61.308,40.185 61.821,39.778 62.038 C 39.144 62.377,37.194 63.755,36.917 64.060 C 36.867 64.116,36.534 64.364,36.179 64.611 C 33.609 66.398,28.768 71.304,26.110 74.814 C 25.049 76.216,24.181 77.431,24.181 77.514 C 24.181 77.598,24.055 77.771,23.901 77.899 C 23.746 78.026,23.483 78.431,23.316 78.798 C 23.148 79.165,22.889 79.609,22.740 79.784 C 22.419 80.162,21.901 81.106,20.838 83.249 C 19.365 86.218,18.840 87.406,18.273 89.063 C 17.960 89.977,17.634 90.891,17.548 91.094 C 17.396 91.456,17.117 92.447,16.782 93.816 C 16.562 94.716,16.288 95.811,16.067 96.677 C 15.449 99.095,14.877 104.655,14.895 108.076 C 14.919 112.608,15.468 117.149,16.436 120.812 C 16.651 121.624,16.895 122.580,16.978 122.935 C 17.248 124.092,17.750 125.607,17.922 125.787 C 18.014 125.883,18.090 126.148,18.090 126.376 C 18.090 126.603,18.173 126.841,18.274 126.904 C 18.376 126.966,18.459 127.180,18.459 127.378 C 18.459 127.577,18.530 127.883,18.617 128.060 C 18.704 128.236,19.430 129.737,20.232 131.396 C 21.033 133.055,22.082 135.049,22.563 135.826 C 23.044 136.604,23.643 137.626,23.894 138.097 C 24.145 138.568,24.461 139.066,24.595 139.204 C 24.729 139.342,25.040 139.746,25.286 140.102 C 25.531 140.457,25.782 140.789,25.842 140.840 C 25.903 140.891,26.154 141.223,26.401 141.578 C 28.540 144.654,38.077 153.576,39.225 153.576 C 39.266 153.576,39.668 153.826,40.119 154.130 C 40.570 154.435,40.986 154.684,41.042 154.684 C 41.098 154.684,41.502 154.912,41.938 155.192 C 42.375 155.471,42.898 155.803,43.101 155.930 C 44.152 156.589,48.525 158.620,49.768 159.028 C 50.264 159.191,50.931 159.442,51.251 159.588 C 51.571 159.733,51.890 159.852,51.961 159.852 C 52.032 159.852,52.352 159.970,52.672 160.114 C 53.165 160.336,58.134 161.611,59.898 161.968 C 62.213 162.437,66.668 162.804,70.512 162.842 C 85.255 162.990,326.844 162.958,329.488 162.808 C 334.258 162.537,337.692 161.996,341.209 160.959 C 341.514 160.869,342.386 160.616,343.147 160.395 C 343.909 160.175,344.611 159.921,344.707 159.831 C 344.803 159.741,345.068 159.668,345.296 159.668 C 345.523 159.668,345.761 159.585,345.824 159.483 C 345.886 159.382,346.136 159.299,346.377 159.299 C 346.619 159.299,346.863 159.225,346.919 159.134 C 346.974 159.044,347.249 158.915,347.529 158.846 C 348.293 158.661,353.187 156.210,354.842 155.185 C 355.639 154.691,356.595 154.117,356.965 153.911 C 359.151 152.690,365.404 147.420,367.108 145.362 C 367.612 144.753,368.408 143.884,368.876 143.432 C 369.345 142.979,369.728 142.533,369.728 142.441 C 369.728 142.349,369.956 141.995,370.235 141.656 C 371.457 140.170,372.951 138.022,373.621 136.788 C 373.817 136.428,374.290 135.635,374.672 135.025 C 375.762 133.287,377.660 129.292,378.220 127.555 C 378.402 126.994,378.731 126.079,378.952 125.522 C 381.283 119.661,382.448 109.149,381.551 102.077 C 381.454 101.315,381.320 100.152,381.254 99.492 C 381.187 98.832,381.058 98.214,380.967 98.117 C 380.877 98.021,380.803 97.590,380.803 97.159 C 380.803 96.728,380.720 96.325,380.618 96.262 C 380.517 96.199,380.434 95.876,380.434 95.544 C 380.434 95.211,380.377 94.882,380.306 94.812 C 380.236 94.742,379.953 93.835,379.677 92.797 C 377.400 84.246,370.166 72.432,364.467 67.956 C 363.959 67.558,363.132 66.807,362.628 66.288 C 362.124 65.769,361.621 65.344,361.509 65.344 C 361.397 65.344,361.067 65.095,360.775 64.790 C 360.483 64.485,360.151 64.236,360.037 64.236 C 359.923 64.236,359.590 63.987,359.299 63.683 C 359.007 63.378,358.672 63.129,358.554 63.129 C 358.437 63.129,358.190 62.963,358.006 62.760 C 357.823 62.557,357.571 62.390,357.447 62.390 C 357.323 62.390,357.116 62.264,356.988 62.110 C 356.860 61.956,356.456 61.689,356.089 61.516 C 355.722 61.344,355.261 61.055,355.064 60.874 C 354.868 60.693,354.626 60.545,354.528 60.545 C 354.430 60.545,354.093 60.355,353.778 60.123 C 353.197 59.694,351.838 59.005,349.515 57.961 C 348.805 57.642,348.057 57.305,347.854 57.212 C 347.651 57.119,346.737 56.789,345.824 56.478 C 344.910 56.167,343.996 55.843,343.793 55.758 C 343.440 55.610,342.729 55.410,341.117 55.007 C 340.711 54.905,340.046 54.739,339.640 54.638 C 339.234 54.536,338.590 54.374,338.210 54.277 C 337.223 54.027,336.587 53.910,335.118 53.712 C 334.407 53.616,333.410 53.458,332.903 53.360 C 331.605 53.111,73.835 53.097,73.835 53.346 M331.149 107.983 L 331.149 161.883 203.046 161.883 L 74.942 161.883 74.942 107.983 L 74.942 54.084 203.046 54.084 L 331.149 54.084 331.149 107.983 M335.764 54.666 C 338.314 55.081,343.945 56.594,345.639 57.319 C 345.944 57.450,346.608 57.700,347.116 57.875 C 348.351 58.301,352.807 60.479,353.882 61.182 C 354.355 61.491,355.173 61.994,355.701 62.298 C 359.800 64.665,366.807 70.955,369.367 74.566 C 369.616 74.918,370.007 75.416,370.235 75.672 C 370.464 75.929,370.651 76.196,370.651 76.266 C 370.651 76.335,370.759 76.502,370.892 76.637 C 371.209 76.958,372.681 79.135,372.681 79.283 C 372.681 79.346,372.930 79.760,373.235 80.203 C 373.539 80.646,373.789 81.061,373.789 81.126 C 373.789 81.191,374.021 81.591,374.305 82.016 C 374.736 82.659,376.091 85.527,377.234 88.214 C 378.275 90.663,379.860 96.345,380.276 99.123 C 381.404 106.643,381.118 113.898,379.420 120.863 C 379.056 122.358,378.678 123.725,378.581 123.902 C 378.483 124.078,378.403 124.384,378.403 124.583 C 378.403 124.781,378.320 124.995,378.219 125.058 C 378.117 125.120,378.034 125.330,378.034 125.524 C 378.034 125.718,377.868 126.173,377.665 126.534 C 377.462 126.896,377.296 127.350,377.296 127.544 C 377.296 127.738,377.213 127.948,377.111 128.011 C 377.010 128.074,376.927 128.276,376.927 128.460 C 376.927 128.834,374.037 134.687,373.772 134.851 C 373.679 134.909,373.441 135.311,373.244 135.745 C 373.046 136.179,372.755 136.641,372.598 136.771 C 372.441 136.902,372.311 137.102,372.310 137.217 C 372.307 137.489,370.491 139.980,368.553 142.367 C 366.225 145.237,362.399 148.931,359.760 150.858 C 359.100 151.340,358.353 151.902,358.099 152.106 C 357.681 152.441,356.634 153.100,353.806 154.807 C 353.274 155.128,352.132 155.735,351.269 156.155 C 350.406 156.576,349.211 157.164,348.613 157.463 C 348.015 157.762,347.388 158.006,347.219 158.006 C 347.051 158.006,346.834 158.083,346.737 158.176 C 346.539 158.367,342.842 159.641,341.855 159.858 C 341.500 159.936,340.583 160.171,339.818 160.380 C 339.053 160.589,337.708 160.885,336.828 161.038 C 335.948 161.192,335.037 161.356,334.804 161.404 C 334.570 161.451,333.902 161.538,333.318 161.596 L 332.257 161.701 332.257 108.003 L 332.257 54.304 333.410 54.387 C 334.045 54.434,335.104 54.559,335.764 54.666 M36.118 90.940 C 35.762 91.295,35.991 95.801,36.364 95.801 C 36.688 95.801,36.733 95.678,36.733 94.796 C 36.733 94.244,36.795 93.755,36.871 93.710 C 37.257 93.483,37.887 94.017,38.243 94.875 C 38.511 95.518,38.733 95.801,38.972 95.801 C 39.428 95.801,39.409 95.627,38.821 94.427 C 38.352 93.472,38.342 93.396,38.636 93.071 C 38.955 92.718,39.050 91.809,38.807 91.444 C 38.457 90.920,36.504 90.554,36.118 90.940 M49.733 91.061 C 49.678 91.205,49.658 91.769,49.690 92.315 L 49.746 93.309 50.485 93.368 C 51.687 93.466,52.184 94.169,51.598 94.942 C 51.393 95.214,51.148 95.271,50.404 95.219 C 49.255 95.140,49.005 95.677,50.108 95.856 C 52.584 96.258,53.682 93.382,51.240 92.891 C 49.759 92.593,49.870 91.505,51.392 91.406 C 52.681 91.322,52.378 90.922,50.975 90.854 C 50.122 90.813,49.808 90.865,49.733 91.061 M53.946 90.939 C 53.497 91.120,53.630 95.801,54.084 95.801 C 54.429 95.801,54.453 95.678,54.453 93.944 C 54.453 91.724,54.568 91.736,55.483 94.048 C 56.327 96.181,56.615 96.295,57.229 94.739 C 57.460 94.156,57.719 93.599,57.805 93.503 C 57.890 93.406,57.960 93.191,57.960 93.024 C 57.960 92.857,58.126 92.570,58.329 92.386 C 58.696 92.054,58.699 92.063,58.699 93.926 C 58.699 95.469,58.748 95.801,58.976 95.801 C 59.409 95.801,59.385 91.040,58.950 90.874 C 58.434 90.676,58.123 91.049,57.455 92.668 C 56.585 94.775,56.518 94.783,55.749 92.883 C 54.866 90.698,54.778 90.603,53.946 90.939 M37.736 91.551 C 38.630 91.891,38.256 93.032,37.250 93.032 C 36.773 93.032,36.733 92.976,36.733 92.324 C 36.733 91.336,36.877 91.224,37.736 91.551 M41.763 92.893 C 41.815 93.050,42.275 93.124,43.193 93.124 C 44.112 93.124,44.572 93.050,44.624 92.893 C 44.681 92.721,44.317 92.663,43.193 92.663 C 42.069 92.663,41.705 92.721,41.763 92.893 M41.762 94.370 C 41.885 94.742,44.670 94.794,44.670 94.424 C 44.670 94.191,44.399 94.139,43.178 94.139 C 42.067 94.139,41.705 94.198,41.762 94.370 M47.623 95.431 C 47.623 95.678,47.747 95.801,47.993 95.801 C 48.239 95.801,48.362 95.678,48.362 95.431 C 48.362 95.185,48.239 95.062,47.993 95.062 C 47.747 95.062,47.623 95.185,47.623 95.431 " stroke="none" fill="#1c355e" fill-rule="evenodd"></path><path id="path2" d="M73.419 53.657 C 73.114 53.737,73.096 55.259,73.096 82.345 L 73.096 110.949 73.512 111.106 C 73.740 111.192,73.989 111.226,74.066 111.181 C 74.326 111.028,74.234 53.527,73.973 53.552 C 73.846 53.563,73.597 53.611,73.419 53.657 M15.505 110.721 C 15.239 110.810,15.278 111.623,15.551 111.702 C 15.678 111.738,28.642 111.746,44.360 111.720 L 72.937 111.673 72.878 111.259 L 72.820 110.844 44.255 110.752 C 28.544 110.701,15.607 110.688,15.505 110.721 " stroke="none" fill="#ec7c34" fill-rule="evenodd"></path><path id="path3" d="M187.375 18.158 C 187.227 18.337,187.179 19.843,187.214 23.281 L 187.263 28.150 188.002 28.150 L 188.740 28.150 188.792 25.808 L 188.843 23.466 189.406 22.993 C 190.824 21.799,191.298 22.424,191.417 25.640 L 191.509 28.150 192.247 28.150 L 192.986 28.150 192.994 25.842 L 193.002 23.535 192.942 25.807 L 192.882 28.080 192.288 28.022 L 191.694 27.965 191.601 25.538 C 191.478 22.307,190.727 21.464,189.221 22.871 L 188.648 23.406 188.648 25.440 C 188.648 27.864,188.592 28.057,187.887 28.057 L 187.350 28.057 187.399 23.232 C 187.444 18.806,187.476 18.389,187.782 18.202 C 188.368 17.843,188.648 18.504,188.648 20.248 C 188.648 21.869,188.757 22.036,189.468 21.499 C 189.736 21.295,189.757 21.228,189.551 21.228 C 189.399 21.228,189.176 21.327,189.054 21.449 C 188.882 21.621,188.832 21.301,188.832 20.009 C 188.832 18.963,188.750 18.266,188.611 18.126 C 188.313 17.828,187.635 17.846,187.375 18.158 M177.245 18.746 C 177.019 18.904,176.834 19.182,176.834 19.363 C 176.834 20.189,178.296 20.653,178.674 19.948 C 179.259 18.854,178.274 18.025,177.245 18.746 M160.678 18.866 C 160.626 19.001,160.606 21.145,160.633 23.631 L 160.683 28.150 161.421 28.150 L 162.160 28.150 162.170 26.119 L 162.180 24.089 162.118 26.073 L 162.055 28.057 161.412 28.057 L 160.769 28.057 160.818 23.489 L 160.868 18.920 161.461 18.863 L 162.054 18.805 162.107 20.709 L 162.160 22.612 164.137 22.664 L 166.115 22.717 166.168 20.818 L 166.221 18.920 166.774 18.920 L 167.328 18.920 167.377 23.489 L 167.427 28.057 166.778 28.057 L 166.128 28.057 166.128 25.934 L 166.128 23.812 164.144 23.851 L 162.160 23.890 164.046 23.949 L 165.932 24.009 165.984 26.079 L 166.036 28.150 166.824 28.206 L 167.611 28.263 167.562 23.499 L 167.513 18.736 166.886 18.676 C 166.042 18.595,165.950 18.804,165.947 20.812 L 165.944 22.520 164.104 22.520 L 162.265 22.520 162.212 20.628 L 162.160 18.736 161.466 18.678 C 161.015 18.641,160.739 18.707,160.678 18.866 M178.527 19.099 C 178.795 19.687,178.441 20.162,177.793 20.083 C 177.203 20.012,176.920 19.323,177.317 18.925 C 177.740 18.503,178.291 18.582,178.527 19.099 M207.308 18.900 C 207.166 19.071,207.112 19.914,207.147 21.438 L 207.199 23.719 208.676 23.758 C 209.835 23.789,210.053 23.757,209.691 23.608 C 209.437 23.504,208.897 23.435,208.491 23.455 C 208.085 23.476,207.649 23.481,207.522 23.467 C 207.140 23.426,207.199 19.087,207.583 18.940 C 208.428 18.616,211.880 18.823,212.001 19.206 C 212.219 19.894,211.802 20.102,210.089 20.159 L 208.491 20.212 208.436 21.274 C 208.405 21.857,208.447 22.335,208.528 22.335 C 208.609 22.335,208.647 21.879,208.612 21.320 L 208.549 20.305 210.191 20.305 C 211.919 20.305,212.275 20.163,212.275 19.474 C 212.275 18.750,211.940 18.643,209.677 18.643 C 208.061 18.643,207.468 18.708,207.308 18.900 M218.219 18.865 C 218.097 18.987,217.997 19.159,217.997 19.247 C 217.997 19.336,218.128 19.277,218.287 19.118 C 218.697 18.708,219.694 18.753,220.177 19.204 C 220.400 19.411,220.581 19.507,220.581 19.417 C 220.581 18.781,218.735 18.349,218.219 18.865 M226.003 19.050 C 225.679 19.411,225.323 20.154,224.872 21.412 C 224.591 22.197,225.193 21.183,225.561 20.252 C 226.095 18.898,227.198 18.348,227.951 19.059 C 228.148 19.245,228.180 19.236,228.112 19.012 C 227.963 18.519,226.456 18.546,226.003 19.050 M195.161 19.603 C 194.936 19.882,194.753 21.228,194.939 21.228 C 195.094 21.228,195.287 20.543,195.291 19.982 C 195.293 19.644,195.396 19.566,195.847 19.566 C 196.380 19.566,196.401 19.597,196.401 20.397 C 196.401 20.854,196.467 21.228,196.547 21.228 C 196.628 21.228,196.649 20.833,196.594 20.351 C 196.487 19.423,195.655 18.988,195.161 19.603 M171.943 21.043 C 171.664 21.163,171.778 21.202,172.404 21.202 C 173.031 21.202,173.144 21.163,172.866 21.043 C 172.663 20.956,172.455 20.884,172.404 20.884 C 172.353 20.884,172.146 20.956,171.943 21.043 M182.280 21.047 C 182.009 21.160,182.153 21.205,182.818 21.215 C 183.317 21.222,183.691 21.198,183.649 21.161 C 183.439 20.980,182.606 20.911,182.280 21.047 M190.125 21.043 C 189.921 21.174,190.044 21.219,190.586 21.212 C 191.166 21.204,191.245 21.168,190.955 21.043 C 190.470 20.834,190.448 20.834,190.125 21.043 M219.474 21.309 C 219.474 21.455,219.545 21.619,219.631 21.672 C 219.718 21.725,219.932 22.166,220.107 22.652 C 220.282 23.138,220.513 23.743,220.620 23.996 C 220.882 24.615,221.155 25.301,221.320 25.750 C 221.394 25.953,221.541 26.327,221.646 26.581 C 221.751 26.834,221.938 27.312,222.062 27.642 C 222.263 28.176,222.366 28.242,222.998 28.242 C 223.814 28.242,223.825 28.224,225.476 24.042 C 225.967 22.799,226.435 21.781,226.516 21.781 C 226.598 21.781,226.687 23.214,226.715 24.965 L 226.765 28.150 227.459 28.169 L 228.153 28.188 227.509 28.112 L 226.865 28.035 226.815 24.585 C 226.761 20.826,226.677 20.582,226.010 22.243 C 225.765 22.852,225.493 23.516,225.405 23.719 C 225.317 23.922,225.160 24.296,225.055 24.550 C 224.950 24.804,224.701 25.385,224.501 25.842 C 224.302 26.299,224.027 26.984,223.892 27.365 C 223.677 27.969,223.570 28.057,223.056 28.057 L 222.467 28.057 221.326 25.150 C 220.698 23.551,220.108 22.098,220.014 21.922 C 219.920 21.746,219.843 21.476,219.843 21.322 C 219.843 21.169,219.760 21.043,219.659 21.043 C 219.557 21.043,219.474 21.163,219.474 21.309 M170.317 21.665 C 168.646 23.032,168.765 26.831,170.512 27.885 C 171.428 28.437,173.893 28.485,174.686 27.965 C 175.722 27.286,174.924 26.178,173.807 26.744 C 173.594 26.852,173.087 26.972,172.681 27.010 C 172.275 27.048,172.358 27.059,172.866 27.033 C 173.373 27.008,174.017 26.928,174.296 26.855 C 174.962 26.681,175.050 27.543,174.401 27.890 C 173.662 28.286,171.227 28.164,170.572 27.698 C 168.820 26.450,168.916 22.869,170.734 21.643 C 171.074 21.415,171.235 21.230,171.093 21.234 C 170.951 21.238,170.602 21.432,170.317 21.665 M173.900 21.647 C 174.245 21.877,174.672 22.355,174.850 22.708 C 175.027 23.061,175.173 23.242,175.173 23.110 C 175.174 22.416,174.112 21.228,173.491 21.228 C 173.371 21.228,173.555 21.416,173.900 21.647 M178.457 24.654 L 178.512 28.082 177.904 28.023 L 177.296 27.965 177.197 24.735 L 177.098 21.504 177.061 24.642 C 177.020 28.134,177.061 28.295,177.961 28.209 L 178.588 28.150 178.638 24.689 C 178.666 22.785,178.624 21.227,178.546 21.227 C 178.467 21.227,178.428 22.769,178.457 24.654 M180.730 21.763 C 180.415 22.058,180.162 22.452,180.169 22.640 C 180.179 22.941,180.198 22.937,180.336 22.597 C 180.421 22.386,180.755 21.991,181.077 21.720 C 181.399 21.449,181.581 21.228,181.483 21.228 C 181.384 21.228,181.045 21.468,180.730 21.763 M185.667 21.374 C 186.025 21.625,185.850 22.233,185.401 22.298 C 185.059 22.347,185.028 22.452,185.100 23.321 C 185.237 24.979,183.891 26.030,182.014 25.730 C 181.345 25.623,181.264 25.651,181.264 25.983 C 181.264 26.417,181.614 26.589,182.433 26.559 C 182.790 26.546,182.874 26.507,182.649 26.460 C 182.446 26.417,182.093 26.342,181.864 26.293 C 181.098 26.129,181.439 25.895,182.326 25.976 C 184.123 26.140,185.325 25.136,185.325 23.473 C 185.325 22.698,185.388 22.525,185.705 22.424 C 186.154 22.281,186.146 21.395,185.695 21.274 C 185.472 21.214,185.466 21.234,185.667 21.374 M192.141 21.795 C 192.476 22.130,192.715 22.566,192.723 22.857 C 192.731 23.128,192.781 23.243,192.834 23.112 C 192.989 22.726,192.735 22.005,192.303 21.602 C 191.658 21.001,191.516 21.171,192.141 21.795 M193.939 21.351 C 193.583 21.707,193.833 22.348,194.370 22.455 L 194.924 22.566 194.924 24.579 C 194.924 27.600,195.315 28.283,197.061 28.308 C 198.182 28.324,198.469 28.110,198.387 27.319 C 198.344 26.907,198.265 26.863,197.656 26.910 C 196.786 26.978,196.533 26.289,196.619 24.089 L 196.677 22.612 197.508 22.520 C 198.268 22.435,199.006 21.228,198.297 21.228 C 198.210 21.228,198.143 21.456,198.147 21.735 C 198.154 22.201,198.087 22.250,197.323 22.335 L 196.493 22.427 196.440 24.342 C 196.377 26.636,196.602 27.191,197.560 27.098 C 198.180 27.038,198.488 27.520,198.087 27.922 C 197.722 28.286,196.222 28.127,195.738 27.672 C 195.320 27.280,195.293 27.130,195.291 25.210 C 195.287 22.714,195.202 22.335,194.645 22.335 C 194.154 22.335,193.902 21.846,194.205 21.481 C 194.413 21.230,194.176 21.114,193.939 21.351 M200.646 21.356 C 199.497 21.766,199.813 23.443,201.039 23.443 C 201.986 23.443,202.332 22.078,201.528 21.515 C 201.090 21.208,201.070 21.204,200.646 21.356 M201.718 22.375 C 201.768 22.978,201.718 23.075,201.303 23.179 C 200.570 23.363,200.277 23.159,200.277 22.464 C 200.277 21.261,201.619 21.178,201.718 22.375 M181.949 22.523 C 181.015 23.257,181.471 24.735,182.631 24.735 C 183.404 24.735,183.849 24.250,183.849 23.404 C 183.849 22.320,182.815 21.841,181.949 22.523 M171.144 22.762 C 170.263 23.700,170.561 24.018,172.266 23.958 C 173.760 23.905,173.788 23.895,173.738 23.452 C 173.612 22.317,171.972 21.881,171.144 22.762 M183.433 22.755 C 183.806 23.044,183.720 24.138,183.307 24.359 C 182.411 24.839,181.576 24.338,181.670 23.377 C 181.757 22.489,182.672 22.166,183.433 22.755 M209.968 22.457 C 211.165 22.714,211.856 23.113,212.236 23.767 C 212.456 24.147,212.638 24.346,212.640 24.209 C 212.654 23.415,211.160 22.314,210.124 22.356 C 209.759 22.371,209.712 22.402,209.968 22.457 M173.407 23.050 C 173.558 23.342,173.630 23.632,173.566 23.696 C 173.330 23.932,170.928 23.822,170.928 23.576 C 170.928 22.467,172.891 22.051,173.407 23.050 M223.638 24.276 C 223.480 24.654,223.350 25.037,223.350 25.126 C 223.350 25.215,223.226 25.288,223.073 25.288 C 222.921 25.288,222.796 25.127,222.796 24.930 C 222.796 24.733,222.713 24.521,222.612 24.458 C 222.380 24.314,222.381 24.363,222.630 25.076 C 222.741 25.396,222.933 25.658,223.055 25.658 C 223.277 25.658,224.155 23.817,224.005 23.667 C 223.961 23.623,223.796 23.897,223.638 24.276 M175.161 24.273 L 175.081 24.827 172.958 24.919 L 170.835 25.012 170.780 25.571 C 170.741 25.978,170.854 26.251,171.196 26.572 C 171.454 26.815,171.666 26.936,171.666 26.842 C 171.666 26.747,171.500 26.566,171.297 26.439 C 170.214 25.762,170.813 25.288,172.753 25.288 C 174.828 25.288,175.459 25.014,175.317 24.174 C 175.245 23.750,175.235 23.756,175.161 24.273 M210.582 24.239 C 211.183 24.880,211.114 25.756,210.410 26.414 C 210.094 26.709,209.932 26.950,210.049 26.950 C 210.509 26.950,211.168 25.979,211.168 25.303 C 211.168 24.610,210.749 23.812,210.387 23.812 C 210.273 23.812,210.361 24.004,210.582 24.239 M180.169 24.725 C 180.160 25.211,180.208 25.311,180.372 25.147 C 180.532 24.987,180.535 24.821,180.385 24.510 C 180.194 24.114,180.181 24.127,180.169 24.725 M179.899 25.890 C 179.792 26.250,179.831 26.527,180.034 26.837 C 180.283 27.217,180.287 27.321,180.061 27.620 C 179.917 27.810,179.797 28.048,179.795 28.150 C 179.792 28.251,179.952 28.089,180.150 27.789 C 180.367 27.458,180.445 27.167,180.347 27.048 C 180.257 26.941,180.154 26.522,180.118 26.117 C 180.054 25.412,180.044 25.403,179.899 25.890 M212.220 26.588 C 211.305 28.530,206.110 28.799,206.852 26.865 C 206.962 26.579,207.068 26.583,208.030 26.910 C 208.216 26.973,208.246 26.943,208.122 26.816 C 207.457 26.140,206.439 26.523,206.651 27.370 C 207.135 29.296,213.060 28.082,212.613 26.148 C 212.579 26.001,212.404 26.198,212.220 26.588 M200.213 26.549 C 199.497 27.340,200.018 28.299,201.115 28.209 C 201.817 28.152,201.848 28.121,201.904 27.444 C 201.999 26.286,200.953 25.731,200.213 26.549 M201.560 26.662 C 202.037 27.237,201.723 27.960,200.969 28.022 C 200.311 28.077,200.277 28.052,200.277 27.530 C 200.277 26.448,200.985 25.969,201.560 26.662 M183.849 26.752 C 186.115 27.086,186.510 29.480,184.440 30.339 C 184.064 30.495,183.864 30.627,183.996 30.632 C 184.861 30.666,186.062 29.361,186.063 28.386 C 186.064 27.496,184.940 26.575,183.889 26.605 L 183.018 26.630 183.849 26.752 M208.724 27.080 C 208.953 27.124,209.286 27.123,209.462 27.077 C 209.639 27.030,209.451 26.994,209.045 26.996 C 208.639 26.998,208.494 27.036,208.724 27.080 M181.367 28.098 C 180.934 28.717,181.210 29.534,181.852 29.534 C 181.957 29.534,181.850 29.377,181.612 29.185 C 180.522 28.302,182.426 27.401,183.932 28.087 C 184.566 28.376,184.524 28.727,183.802 29.167 C 183.470 29.370,183.332 29.533,183.493 29.533 C 183.821 29.534,184.587 28.790,184.587 28.471 C 184.587 27.658,181.894 27.346,181.367 28.098 M217.997 28.103 C 217.997 28.180,218.329 28.242,218.736 28.242 C 219.142 28.242,219.474 28.180,219.474 28.103 C 219.474 28.027,219.142 27.965,218.736 27.965 C 218.329 27.965,217.997 28.027,217.997 28.103 M179.788 29.658 C 179.788 29.936,180.368 30.396,180.895 30.536 C 181.318 30.649,181.326 30.641,180.988 30.440 C 180.784 30.320,180.431 30.053,180.203 29.846 C 179.975 29.639,179.788 29.554,179.788 29.658 M181.957 30.775 C 182.287 30.816,182.826 30.816,183.156 30.775 C 183.486 30.734,183.216 30.701,182.557 30.701 C 181.897 30.701,181.627 30.734,181.957 30.775 M81.772 37.981 C 81.835 39.057,81.940 39.580,82.100 39.612 C 82.229 39.637,82.250 39.616,82.146 39.565 C 82.041 39.513,81.957 38.827,81.957 38.020 C 81.957 37.223,81.894 36.531,81.818 36.484 C 81.742 36.436,81.721 37.110,81.772 37.981 M81.837 42.086 C 81.837 42.949,81.868 43.302,81.907 42.870 C 81.946 42.439,81.946 41.733,81.907 41.301 C 81.868 40.870,81.837 41.223,81.837 42.086 M332.160 53.154 C 332.225 53.259,332.495 53.346,332.760 53.346 C 333.338 53.346,333.271 53.257,332.564 53.087 C 332.221 53.005,332.082 53.028,332.160 53.154 M61.375 53.530 L 60.637 53.662 61.375 53.667 C 61.781 53.669,62.363 53.608,62.667 53.530 L 63.221 53.389 62.667 53.394 C 62.363 53.396,61.781 53.458,61.375 53.530 M73.189 53.530 C 73.126 53.632,73.199 53.715,73.352 53.715 C 73.504 53.715,73.680 53.632,73.743 53.530 C 73.805 53.429,73.732 53.346,73.580 53.346 C 73.427 53.346,73.251 53.429,73.189 53.530 M333.826 53.530 C 334.363 53.761,335.752 53.761,335.395 53.530 C 335.242 53.432,334.744 53.356,334.287 53.361 C 333.655 53.369,333.545 53.409,333.826 53.530 M59.252 53.899 L 58.791 54.047 59.252 54.047 C 59.506 54.047,59.922 53.981,60.175 53.899 L 60.637 53.752 60.175 53.752 C 59.922 53.752,59.506 53.818,59.252 53.899 M336.594 53.885 C 336.899 53.975,338.643 54.421,340.471 54.876 C 343.289 55.579,346.413 56.567,347.854 57.211 C 351.126 58.674,353.235 59.715,354.407 60.446 C 354.965 60.795,355.728 61.249,356.102 61.455 C 356.791 61.836,358.434 62.988,359.945 64.149 C 360.401 64.500,360.983 64.930,361.237 65.106 C 361.491 65.281,362.437 66.114,363.341 66.957 C 364.244 67.799,365.019 68.453,365.063 68.409 C 365.352 68.119,360.683 64.286,357.360 62.085 C 356.396 61.446,355.523 60.859,355.421 60.780 C 355.319 60.701,354.862 60.435,354.406 60.189 C 353.950 59.943,353.535 59.690,353.484 59.627 C 353.360 59.474,349.167 57.407,348.980 57.407 C 348.899 57.407,348.571 57.285,348.251 57.137 C 346.584 56.365,342.661 55.091,339.917 54.430 C 339.511 54.332,338.846 54.170,338.440 54.070 C 337.416 53.817,335.818 53.657,336.594 53.885 M55.376 54.807 C 53.904 55.186,52.524 55.590,52.310 55.705 C 52.096 55.821,51.266 56.131,50.464 56.396 C 49.663 56.660,47.837 57.453,46.406 58.157 C 44.974 58.861,43.747 59.437,43.679 59.437 C 43.453 59.437,42.076 60.412,42.170 60.506 C 42.220 60.556,42.368 60.509,42.498 60.401 C 42.948 60.027,49.009 57.041,49.320 57.039 C 49.492 57.038,49.683 56.954,49.746 56.853 C 49.809 56.751,50.058 56.668,50.300 56.668 C 50.542 56.668,50.791 56.585,50.854 56.484 C 50.916 56.382,51.154 56.299,51.381 56.299 C 51.609 56.299,51.874 56.225,51.970 56.135 C 52.126 55.990,53.697 55.490,55.561 54.993 C 57.940 54.358,58.744 54.111,58.422 54.114 C 58.219 54.116,56.848 54.428,55.376 54.807 M64.513 54.269 L 63.590 54.395 64.698 54.401 C 65.307 54.405,66.387 54.348,67.097 54.275 L 68.389 54.142 66.913 54.142 C 66.101 54.142,65.021 54.199,64.513 54.269 M71.943 54.214 C 72.171 54.258,72.545 54.258,72.773 54.214 C 73.002 54.170,72.815 54.134,72.358 54.134 C 71.901 54.134,71.714 54.170,71.943 54.214 M74.942 107.983 L 74.942 161.883 203.092 161.837 L 331.241 161.791 203.184 161.744 L 75.127 161.698 75.127 107.983 L 75.127 54.269 203.184 54.222 L 331.241 54.176 203.092 54.130 L 74.942 54.084 74.942 107.983 M61.560 54.638 L 61.006 54.779 61.560 54.790 C 61.864 54.796,62.446 54.732,62.852 54.648 L 63.590 54.496 62.852 54.496 C 62.446 54.497,61.864 54.560,61.560 54.638 M333.826 54.638 C 334.029 54.725,334.527 54.796,334.933 54.796 C 335.508 54.796,335.590 54.761,335.302 54.638 C 335.099 54.550,334.601 54.479,334.195 54.479 C 333.620 54.479,333.538 54.514,333.826 54.638 M59.345 55.007 L 58.791 55.148 59.437 55.151 C 59.792 55.153,60.291 55.088,60.545 55.007 C 61.190 54.800,60.157 54.800,59.345 55.007 M336.317 55.007 C 336.470 55.105,336.885 55.181,337.240 55.176 C 337.768 55.167,337.819 55.137,337.517 55.007 C 336.977 54.775,335.958 54.775,336.317 55.007 M57.683 55.376 C 57.345 55.521,57.353 55.536,57.776 55.545 C 58.030 55.550,58.362 55.475,58.514 55.376 C 58.877 55.141,58.230 55.141,57.683 55.376 M338.163 55.376 C 338.316 55.475,338.648 55.550,338.902 55.545 C 339.324 55.536,339.332 55.521,338.994 55.376 C 338.448 55.141,337.800 55.141,338.163 55.376 M56.299 55.756 C 55.944 55.841,55.321 55.986,54.915 56.080 C 53.763 56.346,51.297 57.196,50.513 57.597 C 50.123 57.797,49.699 57.960,49.570 57.960 C 49.442 57.960,48.827 58.210,48.203 58.514 C 47.580 58.819,46.560 59.317,45.936 59.622 C 45.313 59.926,44.726 60.175,44.631 60.175 C 44.537 60.175,44.097 60.425,43.655 60.729 C 43.212 61.034,42.804 61.283,42.748 61.283 C 42.591 61.283,40.609 62.574,40.609 62.677 C 40.609 62.785,41.621 62.235,43.009 61.371 C 43.567 61.023,44.356 60.582,44.762 60.390 C 45.168 60.199,46.391 59.615,47.480 59.093 C 48.568 58.572,49.581 58.145,49.730 58.145 C 49.879 58.145,50.046 58.073,50.100 57.986 C 50.154 57.898,50.576 57.721,51.038 57.591 C 51.500 57.462,51.923 57.284,51.977 57.197 C 52.031 57.109,52.273 57.037,52.515 57.037 C 52.757 57.037,53.006 56.954,53.069 56.853 C 53.132 56.751,53.381 56.668,53.623 56.668 C 53.864 56.668,54.114 56.585,54.176 56.484 C 54.239 56.382,54.571 56.299,54.915 56.299 C 55.258 56.299,55.590 56.216,55.653 56.114 C 55.716 56.013,56.048 55.930,56.391 55.930 C 56.735 55.930,57.067 55.847,57.130 55.745 C 57.257 55.539,57.213 55.540,56.299 55.756 M339.548 55.745 C 339.611 55.847,339.901 55.930,340.194 55.930 C 340.486 55.930,340.777 56.013,340.840 56.114 C 340.903 56.216,341.235 56.299,341.578 56.299 C 341.922 56.299,342.254 56.382,342.317 56.484 C 342.379 56.585,342.629 56.668,342.870 56.668 C 343.112 56.668,343.361 56.751,343.424 56.853 C 343.487 56.954,343.736 57.037,343.978 57.037 C 344.220 57.037,344.469 57.120,344.532 57.222 C 344.594 57.323,344.832 57.407,345.059 57.407 C 345.287 57.407,345.552 57.474,345.648 57.556 C 345.745 57.637,346.395 57.900,347.094 58.138 C 348.340 58.563,353.651 61.159,353.846 61.437 C 353.901 61.515,354.246 61.718,354.612 61.889 C 354.979 62.060,355.384 62.325,355.512 62.479 C 355.640 62.633,355.838 62.760,355.952 62.760 C 356.067 62.761,356.598 63.093,357.133 63.499 C 357.668 63.904,358.172 64.236,358.253 64.236 C 358.333 64.236,358.638 64.485,358.929 64.790 C 359.221 65.095,359.534 65.344,359.625 65.344 C 360.021 65.344,364.183 69.122,366.538 71.620 C 368.565 73.769,370.796 76.688,372.428 79.325 C 373.103 80.417,373.844 81.601,374.074 81.957 C 374.304 82.312,374.669 82.997,374.884 83.479 C 375.099 83.962,375.306 84.356,375.345 84.356 C 375.475 84.356,375.223 83.613,375.058 83.512 C 374.969 83.457,374.896 83.286,374.896 83.133 C 374.896 82.979,374.647 82.492,374.342 82.049 C 374.038 81.606,373.789 81.191,373.789 81.126 C 373.789 81.061,373.539 80.646,373.235 80.203 C 372.930 79.760,372.681 79.346,372.681 79.283 C 372.681 79.155,371.207 76.934,371.025 76.788 C 370.962 76.737,370.710 76.405,370.466 76.050 C 370.222 75.695,369.977 75.362,369.921 75.311 C 369.866 75.261,369.616 74.928,369.366 74.573 C 367.048 71.274,360.426 65.206,356.555 62.833 C 356.075 62.539,355.249 62.032,354.721 61.706 C 353.523 60.968,348.385 58.330,347.762 58.133 C 347.508 58.053,346.844 57.812,346.285 57.596 C 342.872 56.278,339.265 55.287,339.548 55.745 M41.071 60.999 C 40.665 61.246,40.000 61.630,39.594 61.852 C 39.188 62.074,38.594 62.473,38.274 62.738 C 37.954 63.004,37.009 63.719,36.175 64.329 C 32.118 67.291,26.817 72.976,23.780 77.619 C 22.936 78.909,22.335 79.915,22.335 80.037 C 22.335 80.343,22.944 79.600,23.258 78.911 C 23.451 78.487,23.738 78.034,23.895 77.903 C 24.052 77.773,24.181 77.564,24.181 77.440 C 24.181 77.316,24.347 77.064,24.550 76.880 C 24.753 76.697,24.919 76.472,24.919 76.380 C 24.919 76.289,25.168 75.949,25.472 75.625 C 25.776 75.300,26.025 74.969,26.026 74.888 C 26.026 74.808,26.203 74.559,26.418 74.335 C 26.633 74.111,26.950 73.703,27.121 73.428 C 27.293 73.154,28.051 72.273,28.807 71.471 C 29.562 70.670,30.438 69.731,30.753 69.386 C 31.068 69.041,31.650 68.476,32.045 68.131 C 32.441 67.786,33.142 67.163,33.603 66.747 C 35.416 65.111,38.558 62.699,39.720 62.051 C 40.790 61.455,41.901 60.733,41.901 60.635 C 41.901 60.500,41.869 60.514,41.071 60.999 M37.398 64.824 C 32.742 68.318,27.752 73.610,24.581 78.416 C 23.727 79.712,23.631 79.962,24.181 79.465 C 24.384 79.281,24.550 79.040,24.551 78.928 C 24.551 78.817,24.884 78.289,25.289 77.754 C 25.695 77.218,26.027 76.706,26.027 76.615 C 26.027 76.524,26.096 76.422,26.182 76.388 C 26.267 76.354,26.869 75.621,27.520 74.758 C 29.189 72.545,34.797 66.929,36.548 65.717 C 36.904 65.471,37.236 65.220,37.287 65.159 C 37.337 65.099,37.670 64.848,38.025 64.603 C 38.380 64.357,38.773 64.058,38.897 63.937 C 39.021 63.817,39.416 63.538,39.774 63.316 C 40.412 62.922,40.562 62.759,40.286 62.760 C 40.210 62.761,38.911 63.689,37.398 64.824 M366.413 69.774 C 367.056 70.535,367.973 71.574,368.452 72.081 C 369.364 73.047,372.508 77.209,373.140 78.286 C 374.001 79.752,374.405 80.415,374.700 80.849 C 375.047 81.359,377.685 86.862,378.043 87.823 C 378.384 88.738,378.472 88.391,378.144 87.426 C 377.670 86.031,374.614 80.098,374.296 79.957 C 374.220 79.923,374.158 79.813,374.158 79.713 C 374.158 79.613,373.927 79.184,373.645 78.760 C 373.362 78.335,373.023 77.772,372.890 77.508 C 372.757 77.245,372.448 76.796,372.203 76.511 C 371.959 76.226,371.758 75.942,371.758 75.881 C 371.758 75.819,371.571 75.559,371.343 75.303 C 371.114 75.046,370.724 74.549,370.474 74.197 C 370.225 73.846,369.957 73.475,369.879 73.373 C 369.529 72.917,367.676 70.892,366.518 69.699 L 365.245 68.389 366.413 69.774 M21.702 81.013 C 21.165 81.863,21.101 82.107,21.501 81.775 C 21.818 81.511,22.374 80.457,22.257 80.340 C 22.213 80.296,21.963 80.599,21.702 81.013 M22.981 81.034 C 22.796 81.238,22.686 81.447,22.737 81.497 C 22.788 81.548,22.981 81.423,23.166 81.218 C 23.351 81.014,23.460 80.805,23.410 80.755 C 23.359 80.704,23.166 80.829,22.981 81.034 M21.260 84.393 C 20.544 85.845,19.902 87.262,19.834 87.542 C 19.766 87.822,19.636 88.097,19.546 88.153 C 19.455 88.209,19.382 88.441,19.382 88.668 C 19.382 88.896,19.312 89.161,19.226 89.257 C 18.805 89.732,16.826 96.629,17.047 96.850 C 17.103 96.906,17.199 96.714,17.261 96.422 C 17.323 96.131,17.452 95.749,17.547 95.572 C 17.642 95.396,17.720 95.006,17.720 94.707 C 17.720 94.407,17.803 94.110,17.905 94.047 C 18.006 93.984,18.090 93.652,18.090 93.309 C 18.090 92.965,18.173 92.633,18.274 92.570 C 18.376 92.508,18.459 92.258,18.459 92.017 C 18.459 91.775,18.531 91.533,18.618 91.478 C 18.706 91.424,18.825 91.091,18.882 90.738 C 18.939 90.386,19.105 89.823,19.251 89.488 C 19.397 89.153,19.659 88.505,19.833 88.048 C 20.007 87.591,20.729 86.024,21.437 84.566 C 22.145 83.108,22.687 81.878,22.643 81.834 C 22.598 81.789,21.976 82.941,21.260 84.393 M20.050 84.211 C 19.479 85.358,19.012 86.425,19.012 86.582 C 19.012 86.738,18.940 86.946,18.851 87.042 C 18.762 87.138,18.515 87.716,18.302 88.325 C 18.089 88.934,17.710 89.984,17.459 90.659 C 16.626 92.895,15.137 99.438,15.136 100.861 C 15.136 101.788,15.368 101.218,15.523 99.912 C 15.709 98.346,15.841 97.558,16.067 96.677 C 16.164 96.297,16.327 95.653,16.428 95.247 C 16.642 94.390,16.932 93.251,17.203 92.201 C 17.308 91.795,17.463 91.297,17.548 91.094 C 17.634 90.891,17.959 89.977,18.272 89.063 C 18.584 88.150,18.951 87.153,19.086 86.848 C 19.222 86.544,19.447 86.024,19.587 85.695 C 19.726 85.365,19.904 85.095,19.980 85.095 C 20.057 85.095,20.120 84.968,20.120 84.812 C 20.120 84.657,20.375 84.026,20.686 83.409 C 20.997 82.793,21.215 82.252,21.170 82.207 C 21.125 82.162,20.621 83.063,20.050 84.211 M375.839 85.464 C 375.836 85.783,376.905 87.872,376.918 87.573 C 376.923 87.465,376.682 86.883,376.384 86.281 C 376.085 85.679,375.840 85.311,375.839 85.464 M376.999 88.140 C 377.050 88.343,377.418 89.438,377.817 90.572 C 378.216 91.706,378.589 92.869,378.646 93.156 C 378.897 94.411,378.994 94.808,379.138 95.155 C 379.522 96.078,380.142 99.397,380.448 102.169 C 381.027 107.410,380.730 113.972,379.704 118.597 C 379.279 120.511,378.365 123.836,377.866 125.285 C 377.562 126.168,377.342 126.919,377.377 126.954 C 377.486 127.063,378.034 125.852,378.034 125.502 C 378.034 125.320,378.117 125.120,378.219 125.058 C 378.320 124.995,378.403 124.781,378.403 124.583 C 378.403 124.384,378.478 124.078,378.569 123.902 C 378.661 123.725,378.878 122.916,379.053 122.104 C 379.228 121.292,379.482 120.295,379.617 119.889 C 381.009 115.708,381.332 105.544,380.270 99.308 C 379.680 95.841,378.450 91.145,377.841 90.035 C 377.744 89.859,377.665 89.603,377.665 89.468 C 377.665 89.332,377.494 88.895,377.285 88.496 C 377.077 88.097,376.948 87.937,376.999 88.140 M378.416 88.755 C 378.409 88.890,378.607 89.513,378.856 90.139 C 379.106 90.766,379.485 91.984,379.699 92.847 C 379.913 93.710,380.166 94.560,380.261 94.737 C 380.356 94.913,380.434 95.303,380.434 95.603 C 380.434 95.903,380.517 96.199,380.618 96.262 C 380.720 96.325,380.803 96.728,380.803 97.159 C 380.803 97.590,380.879 98.021,380.971 98.117 C 381.064 98.214,381.187 98.749,381.244 99.308 C 381.302 99.866,381.433 101.029,381.536 101.892 C 382.432 109.406,381.339 119.386,378.948 125.535 C 378.376 127.005,378.281 127.462,378.588 127.273 C 378.689 127.210,378.772 126.996,378.772 126.798 C 378.772 126.599,378.846 126.293,378.936 126.117 C 379.232 125.533,379.484 124.882,379.683 124.181 C 379.791 123.800,379.963 123.213,380.065 122.876 C 380.166 122.539,380.249 122.087,380.249 121.871 C 380.249 121.656,380.332 121.429,380.434 121.366 C 380.535 121.303,380.618 120.966,380.618 120.617 C 380.618 120.267,380.693 119.982,380.784 119.982 C 380.876 119.982,380.996 119.629,381.052 119.197 C 381.108 118.766,381.244 117.790,381.354 117.028 C 381.800 113.953,381.935 112.345,382.036 108.906 C 382.141 105.318,382.048 103.881,381.430 99.585 C 381.269 98.468,381.095 97.242,381.043 96.861 C 380.991 96.480,380.874 96.122,380.783 96.065 C 380.693 96.009,380.618 95.683,380.618 95.339 C 380.618 94.996,380.535 94.664,380.434 94.601 C 380.332 94.538,380.249 94.311,380.249 94.095 C 380.249 93.880,380.166 93.428,380.065 93.091 C 379.963 92.754,379.792 92.167,379.685 91.786 C 379.512 91.171,379.289 90.581,378.620 88.971 C 378.515 88.717,378.423 88.620,378.416 88.755 M36.035 90.788 C 35.858 90.900,35.812 91.557,35.850 93.415 L 35.902 95.893 36.364 95.893 C 36.796 95.893,36.831 95.821,36.917 94.757 C 36.968 94.132,36.947 93.659,36.871 93.706 C 36.795 93.753,36.733 94.244,36.733 94.796 C 36.733 95.682,36.689 95.801,36.358 95.801 C 35.998 95.801,35.986 95.706,36.035 93.355 L 36.087 90.909 37.010 90.800 L 37.933 90.690 37.102 90.664 C 36.645 90.650,36.165 90.705,36.035 90.788 M49.700 90.754 C 49.547 90.816,49.469 91.272,49.469 92.105 C 49.469 93.456,49.561 93.583,50.546 93.588 C 52.043 93.597,51.894 94.962,50.392 94.988 C 49.259 95.007,48.742 95.868,49.838 95.911 C 50.240 95.926,50.246 95.919,49.885 95.852 C 48.968 95.684,49.407 95.150,50.404 95.219 C 51.148 95.271,51.393 95.214,51.598 94.942 C 52.184 94.169,51.687 93.466,50.485 93.368 L 49.746 93.309 49.746 92.109 L 49.746 90.909 50.931 90.909 C 52.370 90.909,52.749 91.318,51.392 91.406 C 49.870 91.505,49.759 92.593,51.240 92.891 C 52.908 93.226,53.061 95.314,51.451 95.779 C 50.903 95.938,50.893 95.953,51.329 95.969 C 51.951 95.990,52.593 95.296,52.730 94.451 C 52.869 93.594,52.043 92.663,51.145 92.663 C 50.662 92.663,50.577 92.593,50.577 92.201 C 50.577 91.788,50.652 91.740,51.293 91.740 C 52.061 91.740,52.534 91.372,52.357 90.911 C 52.251 90.636,50.282 90.520,49.700 90.754 M53.837 90.865 C 53.559 91.068,53.525 91.401,53.571 93.495 L 53.623 95.893 54.084 95.893 C 54.527 95.893,54.548 95.841,54.601 94.601 C 54.648 93.498,55.007 92.326,55.007 93.274 C 55.007 93.448,55.080 93.735,55.170 93.911 C 55.260 94.087,55.435 94.481,55.561 94.785 C 55.974 95.792,56.056 95.892,56.502 95.946 C 56.852 95.988,56.998 95.872,57.195 95.392 C 57.332 95.059,57.602 94.433,57.795 94.003 C 57.987 93.573,58.160 93.116,58.179 92.988 C 58.198 92.860,58.261 93.461,58.318 94.324 C 58.420 95.869,58.430 95.894,58.929 95.951 L 59.437 96.010 59.437 93.426 C 59.437 91.004,59.414 90.834,59.068 90.725 C 58.417 90.518,58.034 90.798,57.611 91.788 C 57.384 92.320,57.120 92.899,57.025 93.075 C 56.930 93.252,56.853 93.492,56.853 93.609 C 56.853 93.726,56.708 93.928,56.530 94.058 C 56.353 94.188,56.251 94.338,56.305 94.391 C 56.530 94.616,56.846 94.142,57.455 92.668 C 58.123 91.049,58.434 90.676,58.950 90.874 C 59.385 91.040,59.409 95.801,58.976 95.801 C 58.748 95.801,58.699 95.469,58.699 93.926 C 58.699 92.063,58.696 92.054,58.329 92.386 C 58.126 92.570,57.960 92.857,57.960 93.024 C 57.960 93.191,57.890 93.406,57.805 93.503 C 57.719 93.599,57.460 94.156,57.229 94.739 C 56.615 96.295,56.327 96.181,55.483 94.048 C 54.568 91.736,54.453 91.724,54.453 93.944 C 54.453 95.678,54.429 95.801,54.084 95.801 C 53.734 95.801,53.715 95.678,53.715 93.405 L 53.715 91.008 54.179 90.892 C 54.445 90.825,54.760 90.873,54.917 91.003 C 55.076 91.136,55.192 91.153,55.192 91.044 C 55.192 90.632,54.314 90.516,53.837 90.865 M38.302 91.025 C 39.028 91.461,39.193 92.455,38.640 93.066 C 38.355 93.381,38.976 95.465,39.269 95.172 C 39.310 95.131,39.178 94.757,38.977 94.340 L 38.611 93.583 38.998 92.876 L 39.386 92.168 39.018 91.539 C 38.816 91.193,38.489 90.886,38.292 90.857 C 37.944 90.805,37.945 90.810,38.302 91.025 M36.856 91.494 C 36.451 91.899,36.741 93.032,37.250 93.032 C 37.879 93.032,38.210 92.731,38.210 92.160 C 38.210 91.637,37.206 91.143,36.856 91.494 M37.668 91.746 C 38.099 91.977,38.138 92.580,37.733 92.735 C 37.102 92.977,36.917 92.857,36.917 92.201 C 36.917 91.524,37.075 91.429,37.668 91.746 M41.620 92.550 C 40.931 93.054,41.573 93.401,43.193 93.401 C 44.283 93.401,44.684 93.330,44.871 93.104 C 45.279 92.613,44.616 92.293,43.193 92.293 C 42.441 92.293,41.837 92.392,41.620 92.550 M44.624 92.893 C 44.572 93.050,44.112 93.124,43.193 93.124 C 42.275 93.124,41.815 93.050,41.763 92.893 C 41.705 92.721,42.069 92.663,43.193 92.663 C 44.317 92.663,44.681 92.721,44.624 92.893 M37.498 94.066 C 37.665 94.259,37.957 94.749,38.146 95.155 C 38.492 95.900,39.312 96.222,39.426 95.658 C 39.452 95.528,39.432 95.507,39.380 95.611 C 39.142 96.091,38.628 95.755,38.199 94.839 C 37.951 94.311,37.623 93.842,37.471 93.797 C 37.241 93.730,37.246 93.776,37.498 94.066 M41.439 94.141 C 41.118 94.660,41.756 94.892,43.360 94.838 C 44.806 94.790,44.947 94.753,44.947 94.416 C 44.947 93.990,41.690 93.734,41.439 94.141 M44.670 94.424 C 44.670 94.794,41.885 94.742,41.762 94.370 C 41.705 94.198,42.067 94.139,43.178 94.139 C 44.399 94.139,44.670 94.191,44.670 94.424 M47.631 94.961 C 47.312 95.345,47.469 95.884,47.918 95.948 C 48.538 96.037,48.856 95.506,48.451 95.059 C 48.056 94.622,47.925 94.607,47.631 94.961 M48.362 95.431 C 48.362 95.678,48.239 95.801,47.993 95.801 C 47.747 95.801,47.623 95.678,47.623 95.431 C 47.623 95.185,47.747 95.062,47.993 95.062 C 48.239 95.062,48.362 95.185,48.362 95.431 M16.754 97.462 C 16.535 98.206,16.576 98.929,16.814 98.519 C 16.919 98.339,16.979 97.924,16.947 97.596 C 16.892 97.025,16.884 97.020,16.754 97.462 M16.384 99.585 C 16.175 100.717,16.206 101.514,16.443 101.107 C 16.547 100.929,16.607 100.347,16.576 99.815 L 16.521 98.846 16.384 99.585 M14.905 102.611 C 14.829 103.261,14.777 104.341,14.790 105.011 L 14.814 106.230 14.981 104.938 C 15.073 104.227,15.125 103.147,15.096 102.538 L 15.044 101.431 14.905 102.611 M16.015 102.907 C 15.940 103.313,15.888 104.227,15.899 104.938 L 15.919 106.230 16.085 105.122 C 16.176 104.513,16.228 103.599,16.201 103.092 L 16.151 102.169 16.015 102.907 M14.812 111.029 C 14.805 111.943,14.864 113.106,14.943 113.613 C 15.143 114.896,15.154 112.575,14.958 110.660 L 14.825 109.368 14.812 111.029 M15.874 110.106 C 15.874 110.461,15.941 110.752,16.022 110.752 C 16.103 110.752,16.136 110.461,16.094 110.106 C 16.053 109.751,15.986 109.460,15.947 109.460 C 15.907 109.460,15.874 109.751,15.874 110.106 M73.835 136.281 L 73.927 161.421 73.974 136.420 C 74.000 122.669,73.958 111.355,73.882 111.279 C 73.805 111.202,73.784 122.453,73.835 136.281 M15.996 111.814 C 15.950 111.890,15.972 112.450,16.045 113.060 L 16.177 114.167 16.257 112.921 C 16.328 111.802,16.238 111.418,15.996 111.814 M16.287 114.905 C 16.287 115.311,16.351 115.893,16.428 116.198 L 16.569 116.751 16.580 116.198 C 16.587 115.893,16.523 115.311,16.439 114.905 L 16.286 114.167 16.287 114.905 M15.247 115.644 C 15.501 118.610,17.101 124.877,18.111 126.855 C 18.201 127.031,18.274 127.338,18.274 127.536 C 18.274 127.735,18.357 127.948,18.459 128.011 C 18.560 128.074,18.643 128.261,18.643 128.427 C 18.643 128.593,19.225 129.913,19.935 131.359 C 20.646 132.806,21.228 134.037,21.228 134.096 C 21.228 134.309,22.207 135.676,22.296 135.587 C 22.346 135.537,22.294 135.383,22.180 135.246 C 21.832 134.826,18.828 128.691,18.828 128.399 C 18.828 128.248,18.745 128.074,18.643 128.011 C 18.542 127.948,18.459 127.699,18.459 127.457 C 18.459 127.215,18.376 126.966,18.274 126.904 C 18.173 126.841,18.090 126.603,18.090 126.376 C 18.090 126.148,18.014 125.883,17.922 125.787 C 17.748 125.605,17.240 124.067,16.981 122.935 C 16.899 122.580,16.627 121.500,16.377 120.535 C 16.126 119.571,15.829 118.242,15.715 117.582 C 15.602 116.922,15.429 115.967,15.331 115.459 L 15.153 114.536 15.247 115.644 M16.653 117.305 C 16.655 117.610,16.720 118.108,16.797 118.413 L 16.938 118.966 16.942 118.320 C 16.944 117.965,16.879 117.467,16.797 117.213 C 16.654 116.765,16.650 116.768,16.653 117.305 M17.078 119.612 C 17.144 119.968,17.268 120.508,17.354 120.812 C 17.440 121.117,17.606 121.740,17.723 122.197 C 18.175 123.964,18.344 124.510,18.491 124.679 C 18.575 124.776,18.643 125.041,18.643 125.268 C 18.643 125.496,18.726 125.733,18.828 125.796 C 18.929 125.859,19.012 126.069,19.012 126.263 C 19.012 126.457,19.179 126.911,19.382 127.273 C 19.585 127.634,19.751 128.040,19.751 128.175 C 19.751 128.310,20.000 128.931,20.305 129.554 C 20.609 130.178,21.108 131.198,21.412 131.821 C 21.717 132.444,21.966 133.032,21.966 133.126 C 21.966 133.220,22.215 133.660,22.520 134.102 C 22.824 134.545,23.073 134.950,23.073 135.001 C 23.073 136.481,31.765 146.782,35.339 149.539 C 38.493 151.972,40.171 153.202,40.332 153.198 C 40.554 153.194,40.351 153.032,37.448 150.900 C 34.625 148.826,28.952 143.296,27.507 141.209 C 27.261 140.854,27.010 140.521,26.950 140.471 C 26.889 140.420,26.640 140.088,26.396 139.732 C 26.152 139.377,25.897 139.045,25.828 138.994 C 25.687 138.888,24.539 137.079,23.719 135.671 C 23.415 135.147,22.996 134.455,22.788 134.134 C 22.580 133.812,21.847 132.303,21.159 130.780 C 20.470 129.257,19.747 127.679,19.552 127.273 C 19.356 126.867,19.196 126.394,19.197 126.222 C 19.197 126.051,19.114 125.859,19.012 125.796 C 18.911 125.733,18.828 125.484,18.828 125.242 C 18.828 125.000,18.745 124.751,18.643 124.689 C 18.542 124.626,18.459 124.377,18.459 124.135 C 18.459 123.893,18.376 123.644,18.274 123.581 C 18.173 123.518,18.090 123.186,18.090 122.843 C 18.090 122.499,18.006 122.167,17.905 122.104 C 17.803 122.042,17.720 121.709,17.720 121.366 C 17.720 121.023,17.637 120.690,17.536 120.628 C 17.434 120.565,17.350 120.290,17.348 120.017 C 17.347 119.744,17.259 119.395,17.153 119.243 C 17.010 119.039,16.991 119.135,17.078 119.612 M376.871 128.011 C 376.478 129.120,373.800 134.535,373.576 134.673 C 373.490 134.727,373.250 135.119,373.044 135.544 C 372.714 136.226,372.233 136.998,370.940 138.924 C 370.744 139.216,370.376 139.683,370.123 139.961 C 369.870 140.239,369.711 140.516,369.771 140.575 C 369.897 140.701,372.093 137.804,372.321 137.212 C 372.405 136.994,372.562 136.760,372.670 136.693 C 372.778 136.627,373.032 136.208,373.235 135.764 C 373.437 135.319,373.673 134.912,373.758 134.859 C 373.980 134.723,376.927 128.748,376.927 128.436 C 376.927 128.294,377.017 128.086,377.129 127.975 C 377.240 127.864,377.301 127.619,377.264 127.431 C 377.221 127.211,377.081 127.418,376.871 128.011 M378.133 127.826 C 378.062 128.030,377.925 128.393,377.828 128.635 C 377.544 129.342,377.789 129.303,378.128 128.587 C 378.299 128.227,378.399 127.826,378.350 127.695 C 378.292 127.539,378.217 127.585,378.133 127.826 M377.053 130.319 C 376.781 130.866,376.557 131.406,376.557 131.519 C 376.557 131.790,375.377 134.129,375.039 134.528 C 374.893 134.700,374.633 135.132,374.462 135.487 C 374.290 135.842,373.996 136.341,373.809 136.594 C 373.621 136.848,373.003 137.770,372.436 138.642 C 371.868 139.515,371.276 140.335,371.120 140.465 C 370.963 140.594,370.835 140.784,370.835 140.885 C 370.835 141.303,371.790 140.170,372.605 138.784 C 372.716 138.596,372.944 138.290,373.113 138.104 C 373.281 137.918,373.419 137.701,373.419 137.622 C 373.419 137.543,373.669 137.109,373.973 136.658 C 374.278 136.207,374.527 135.791,374.527 135.735 C 374.527 135.679,374.769 135.273,375.066 134.834 C 375.862 133.654,377.718 129.833,377.628 129.560 C 377.584 129.430,377.326 129.772,377.053 130.319 M22.713 136.548 C 23.582 138.110,24.113 138.963,24.550 139.503 C 24.804 139.816,25.510 140.754,26.119 141.586 C 28.426 144.737,33.137 149.409,36.591 151.971 C 38.759 153.579,39.296 153.898,38.671 153.207 C 38.487 153.004,38.261 152.838,38.168 152.838 C 38.075 152.838,37.869 152.709,37.711 152.551 C 37.553 152.393,36.666 151.696,35.740 151.001 C 33.142 149.054,27.972 143.837,26.401 141.578 C 26.154 141.223,25.903 140.891,25.842 140.840 C 25.782 140.789,25.530 140.457,25.282 140.102 C 25.035 139.746,24.706 139.308,24.553 139.127 C 24.251 138.772,23.436 137.421,22.943 136.456 C 22.774 136.126,22.566 135.856,22.482 135.856 C 22.397 135.856,22.501 136.168,22.713 136.548 M368.954 141.593 C 364.253 147.393,357.131 153.123,350.979 156.055 C 350.174 156.439,349.026 156.993,348.428 157.287 C 347.830 157.581,347.191 157.822,347.009 157.822 C 346.826 157.822,346.632 157.894,346.578 157.981 C 346.524 158.069,346.101 158.246,345.639 158.376 C 345.177 158.505,344.755 158.683,344.701 158.770 C 344.646 158.858,344.404 158.929,344.162 158.929 C 343.921 158.929,343.671 159.012,343.609 159.114 C 343.546 159.216,343.297 159.299,343.055 159.299 C 342.813 159.299,342.562 159.385,342.497 159.491 C 342.345 159.735,342.879 159.603,344.750 158.932 C 347.099 158.089,347.935 157.743,349.977 156.770 C 351.043 156.263,352.123 155.749,352.377 155.629 C 352.630 155.509,353.274 155.143,353.806 154.816 C 354.338 154.490,355.418 153.831,356.206 153.352 C 356.993 152.874,357.866 152.292,358.147 152.060 C 358.427 151.828,358.993 151.389,359.404 151.084 C 362.815 148.562,366.935 144.523,369.524 141.163 C 370.040 140.494,369.538 140.872,368.954 141.593 M370.224 141.727 C 369.951 142.012,369.728 142.326,369.728 142.427 C 369.728 142.527,369.346 142.979,368.880 143.432 C 368.413 143.884,367.409 145.002,366.647 145.916 L 365.263 147.577 367.129 145.639 C 368.751 143.955,370.251 142.199,370.716 141.440 C 370.947 141.062,370.752 141.176,370.224 141.727 M363.728 148.705 C 362.317 150.006,358.023 153.315,356.991 153.896 C 356.636 154.096,355.764 154.632,355.053 155.088 C 353.515 156.074,347.791 158.929,347.353 158.929 C 347.184 158.929,346.994 159.012,346.931 159.114 C 346.868 159.216,346.619 159.299,346.377 159.299 C 346.136 159.299,345.886 159.382,345.824 159.483 C 345.761 159.585,345.523 159.668,345.296 159.668 C 345.068 159.668,344.803 159.741,344.707 159.831 C 344.543 159.985,343.454 160.329,340.840 161.054 C 339.364 161.463,339.314 161.482,339.673 161.499 C 340.046 161.517,342.911 160.752,344.070 160.326 C 344.527 160.158,345.316 159.892,345.824 159.735 C 346.331 159.578,346.891 159.374,347.067 159.282 C 347.243 159.189,347.497 159.114,347.631 159.114 C 347.971 159.114,353.293 156.412,354.916 155.415 C 355.654 154.962,356.617 154.384,357.058 154.130 C 357.498 153.876,358.099 153.481,358.394 153.251 C 358.688 153.022,359.386 152.501,359.945 152.093 C 362.099 150.522,365.256 147.751,365.086 147.581 C 365.049 147.544,364.438 148.050,363.728 148.705 M40.801 153.493 C 40.932 153.651,41.394 153.941,41.828 154.139 C 42.262 154.337,42.664 154.574,42.721 154.666 C 42.864 154.897,48.607 157.697,49.746 158.091 C 50.254 158.267,50.918 158.518,51.223 158.649 C 52.959 159.396,58.353 160.870,58.766 160.711 C 58.881 160.666,58.621 160.569,58.187 160.494 C 57.753 160.419,57.354 160.285,57.299 160.197 C 57.245 160.109,56.919 160.037,56.576 160.037 C 56.233 160.037,55.900 159.954,55.838 159.852 C 55.775 159.751,55.443 159.668,55.099 159.668 C 54.756 159.668,54.424 159.585,54.361 159.483 C 54.298 159.382,54.049 159.299,53.807 159.299 C 53.565 159.299,53.316 159.216,53.253 159.114 C 53.191 159.012,52.941 158.929,52.700 158.929 C 52.458 158.929,52.209 158.846,52.146 158.745 C 52.083 158.643,51.886 158.560,51.708 158.560 C 51.530 158.560,51.041 158.394,50.620 158.191 C 50.200 157.988,49.768 157.822,49.660 157.822 C 49.553 157.822,49.320 157.746,49.144 157.653 C 48.967 157.560,47.536 156.853,45.962 156.081 C 43.156 154.705,42.311 154.246,41.309 153.553 C 40.701 153.133,40.481 153.107,40.801 153.493 M39.409 153.946 C 39.593 154.149,39.826 154.315,39.928 154.315 C 40.030 154.315,39.962 154.149,39.778 153.946 C 39.595 153.743,39.361 153.576,39.260 153.576 C 39.158 153.576,39.226 153.743,39.409 153.946 M40.609 154.684 C 40.863 154.882,41.321 155.166,41.627 155.314 C 41.933 155.462,42.473 155.776,42.827 156.012 C 43.511 156.468,45.049 157.241,47.162 158.190 C 47.873 158.509,48.620 158.848,48.823 158.942 C 50.198 159.580,54.955 161.144,55.520 161.144 C 56.057 161.144,55.612 160.948,54.432 160.664 C 53.784 160.509,53.087 160.307,52.884 160.217 C 52.681 160.127,51.767 159.800,50.854 159.489 C 49.940 159.178,49.026 158.849,48.823 158.758 C 47.761 158.281,43.420 156.136,43.108 155.934 C 41.032 154.588,39.520 153.832,40.609 154.684 M341.026 159.850 C 340.956 159.963,341.142 159.988,341.523 159.915 C 342.339 159.760,342.409 159.668,341.712 159.668 C 341.397 159.668,341.088 159.750,341.026 159.850 M339.549 160.219 C 339.479 160.332,339.666 160.357,340.046 160.285 C 340.862 160.129,340.933 160.037,340.235 160.037 C 339.920 160.037,339.611 160.119,339.549 160.219 M338.163 160.591 C 337.800 160.825,338.448 160.825,338.994 160.591 C 339.332 160.445,339.324 160.431,338.902 160.422 C 338.648 160.416,338.316 160.492,338.163 160.591 M59.252 160.960 C 59.405 161.058,59.820 161.134,60.175 161.129 C 60.703 161.120,60.754 161.089,60.452 160.960 C 59.912 160.728,58.893 160.728,59.252 160.960 M336.133 160.960 C 335.487 161.167,336.520 161.167,337.333 160.960 L 337.886 160.819 337.240 160.816 C 336.885 160.814,336.387 160.879,336.133 160.960 M55.984 161.260 C 56.048 161.324,56.435 161.448,56.845 161.537 C 57.256 161.626,57.944 161.784,58.376 161.889 C 59.450 162.150,61.052 162.312,60.268 162.081 C 58.316 161.504,55.734 161.010,55.984 161.260 M61.375 161.329 C 61.578 161.416,62.118 161.488,62.575 161.488 C 63.201 161.488,63.315 161.449,63.036 161.329 C 62.833 161.242,62.293 161.170,61.837 161.170 C 61.210 161.170,61.097 161.209,61.375 161.329 M333.733 161.329 L 333.087 161.465 333.826 161.467 C 334.232 161.469,334.813 161.407,335.118 161.329 L 335.671 161.188 335.025 161.191 C 334.670 161.192,334.089 161.254,333.733 161.329 M64.513 161.712 C 65.274 161.887,73.608 161.916,73.713 161.744 C 73.759 161.668,71.584 161.601,68.878 161.595 C 66.173 161.589,64.209 161.642,64.513 161.712 M338.348 161.698 L 337.886 161.846 338.348 161.862 C 338.602 161.870,338.934 161.797,339.086 161.698 C 339.439 161.470,339.059 161.470,338.348 161.698 M336.502 162.067 L 336.041 162.215 336.502 162.215 C 336.756 162.215,337.171 162.149,337.425 162.067 L 337.886 161.920 337.425 161.920 C 337.171 161.920,336.756 161.986,336.502 162.067 M61.375 162.437 C 61.578 162.524,62.118 162.593,62.575 162.590 C 63.256 162.585,63.323 162.558,62.944 162.437 C 62.284 162.225,60.883 162.225,61.375 162.437 M334.010 162.437 L 333.456 162.577 334.010 162.589 C 334.315 162.595,334.896 162.531,335.302 162.447 L 336.041 162.294 335.302 162.295 C 334.896 162.295,334.315 162.359,334.010 162.437 M64.329 162.829 C 65.107 162.977,74.140 163.050,73.998 162.907 C 73.952 162.861,71.592 162.794,68.752 162.756 C 65.913 162.719,63.922 162.752,64.329 162.829 M330.248 162.759 C 328.782 162.800,328.031 162.900,327.762 163.089 C 327.549 163.238,327.472 163.359,327.590 163.359 C 327.708 163.359,327.856 163.276,327.919 163.175 C 327.984 163.070,328.966 162.985,330.191 162.977 C 331.378 162.970,332.515 162.893,332.718 162.806 L 333.087 162.647 332.718 162.674 C 332.515 162.688,331.404 162.727,330.248 162.759 " stroke="none" fill="#979fb6" fill-rule="evenodd"></path><path id="path4" d="M78.270 38.202 C 76.496 39.103,75.022 39.910,74.993 39.996 C 74.964 40.081,76.475 40.917,78.349 41.853 L 81.757 43.554 81.811 42.035 L 81.864 40.517 203.184 40.471 L 324.504 40.424 324.504 41.701 C 324.504 43.768,324.304 43.757,328.028 41.893 C 329.846 40.983,331.330 40.135,331.324 40.008 C 331.309 39.623,324.846 36.479,324.663 36.767 C 324.579 36.901,324.508 37.612,324.507 38.348 L 324.504 39.686 203.184 39.640 L 81.864 39.594 81.811 38.071 C 81.781 37.234,81.698 36.552,81.626 36.556 C 81.554 36.561,80.044 37.301,78.270 38.202 M64.144 53.161 C 63.845 53.644,64.419 53.715,68.640 53.715 C 71.900 53.715,73.082 53.656,73.253 53.484 C 73.437 53.300,99.697 53.235,202.824 53.161 L 332.164 53.068 198.211 53.022 C 109.059 52.992,64.220 53.038,64.144 53.161 M15.756 107.799 C 15.756 108.763,15.788 109.158,15.826 108.676 C 15.864 108.193,15.864 107.404,15.826 106.922 C 15.788 106.440,15.756 106.834,15.756 107.799 M29.895 144.393 C 30.348 144.875,30.743 145.270,30.772 145.270 C 30.911 145.270,30.764 145.104,29.949 144.339 L 29.072 143.516 29.895 144.393 M33.218 147.716 C 33.671 148.198,34.065 148.593,34.095 148.593 C 34.233 148.593,34.087 148.427,33.272 147.662 L 32.395 146.839 33.218 147.716 M74.242 163.129 C 74.485 163.421,327.189 163.468,327.642 163.175 C 327.821 163.060,282.944 162.979,200.985 162.947 C 99.454 162.908,74.089 162.944,74.242 163.129 " stroke="none" fill="#7494d4" fill-rule="evenodd"></path></g></svg>